<?xml version="1.0" encoding="utf-8"?>
<!-- Generator: Adobe Illustrator 26.0.2, SVG Export Plug-In . SVG Version: 6.00 Build 0)  -->
<svg version="1.1" id="Layer_1" xmlns="http://www.w3.org/2000/svg" xmlns:xlink="http://www.w3.org/1999/xlink" x="0px" y="0px"
	 viewBox="0 0 410 100" style="enable-background:new 0 0 410 100;" xml:space="preserve">
<style type="text/css">
	.st0{fill:#FFFFFF;stroke:#507DC5;stroke-width:9;stroke-miterlimit:10;}
</style>
<g>
	<path class="st0" d="M52,69.2c2.2-2.1,3.4-5.5,3.4-10.3V5.6h26.9v57.1c0,6.4-1.6,12-4.7,16.7c-3.1,4.8-7.6,8.4-13.3,11
		c-5.8,2.6-12.7,3.9-20.6,3.9c-8,0-14.9-1.3-20.6-3.9c-5.8-2.6-10.2-6.3-13.3-11c-3.1-4.8-4.7-10.3-4.7-16.7V5.6H32V59
		c0,4.8,1.1,8.3,3.4,10.3c2.2,2.1,5,3.1,8.4,3.1C46.9,72.4,49.7,71.4,52,69.2z"/>
	<path class="st0" d="M99.2,92.9V5.6h26.9v87.3H99.2z"/>
	<path class="st0" d="M145.1,92.9l31.6-87.4h23.4l-31.6,87.4H145.1z"/>
	<path class="st0" d="M267,69.2c2.2-2.1,3.4-5.5,3.4-10.3V5.6h26.9v57.1c0,6.4-1.6,12-4.7,16.7c-3.1,4.8-7.6,8.4-13.3,11
		c-5.8,2.6-12.7,3.9-20.6,3.9c-8,0-14.9-1.3-20.6-3.9c-5.8-2.6-10.2-6.3-13.3-11c-3.1-4.8-4.7-10.3-4.7-16.7V5.6H247V59
		c0,4.8,1.1,8.3,3.4,10.3c2.2,2.1,5,3.1,8.4,3.1C262,72.4,264.8,71.4,267,69.2z"/>
	<path class="st0" d="M375.7,49l25.9,44h-29.9l-13.5-25.3h-1l-13.4,25.3h-28.3l24.7-44L315.2,5.6h31.3l12,26.4h1.1l12-26.4h29.9
		L375.7,49z"/>
</g>
</svg>
