<svg width="1440" height="358" viewBox="0 0 1440 358" fill="none" xmlns="http://www.w3.org/2000/svg">
<g opacity="0.3" clip-path="url(#clip0_1182_1044)">
<path opacity="0.5" d="M-733.182 -130.882C-733.182 -130.882 -594.599 -2.8789 -510.88 56.4036C-427.161 115.686 -275.917 206.035 -120.355 238.282C35.2076 270.528 180.857 262.073 299.026 219.996C417.194 177.918 568.536 72.2319 733.226 73.3133C897.916 74.3948 973.195 112.835 1153.29 195.123C1333.39 277.41 1410.14 279.966 1472.76 286.947C1535.38 293.927 1656.59 296.385 1849.74 228.844C2042.89 161.303 1883.01 272.495 1883.01 272.495C1883.01 272.495 1675.63 316.932 1515.65 321.847C1355.67 326.763 1159.38 257.649 1084.98 215.67C1010.59 173.69 843.641 90.5181 671.296 105.462C498.852 120.503 387.652 205.347 301.872 233.858C215.994 262.368 68.283 313.589 -113.288 279.966C-294.859 246.343 -499.691 132.203 -569.277 84.6193C-638.863 37.036 -802.179 -110.728 -802.179 -110.728L-733.182 -130.882Z" fill="#507DC6"/>
<path opacity="0.7" d="M1746.88 190.994C1746.88 190.994 1631.27 302.972 1458.73 339.938C1286.18 377.001 1224.35 363.827 975.844 265.417C727.337 167.006 458.022 74.8868 268.01 80.6873C77.9987 86.4877 -28.0977 125.125 -148.425 175.362C-268.753 225.6 -414.403 248.605 -579.093 236.316C-743.783 223.929 -837.12 166.318 -837.12 166.318L-784.906 120.209C-784.906 120.209 -674.099 209.083 -547.391 223.142C-420.684 237.103 -328.917 251.653 -80.3117 138.593C168.294 25.5339 312.373 -5.72947 510.236 65.8421C708.1 137.414 860.129 208.199 951.994 244.476C1043.86 280.753 1179.99 325.977 1390.61 297.172C1601.23 268.366 1746.88 152.357 1746.88 152.357V190.994Z" fill="#507DC6"/>
<path opacity="0.6" d="M1761.12 62.5974C1761.12 62.5974 1520.46 -4.94339 1305.13 21.4044C1089.79 47.7521 579.921 224.715 521.426 242.018C462.93 259.321 189.298 350.457 -95.1312 283.112C-379.56 215.768 -449.244 197.581 -819.649 0.0705566L-810.129 55.2239C-810.129 55.2239 -626.497 141.641 -536.202 177.82C-445.907 213.999 -254.423 280.163 -96.0145 307.592C62.2959 335.021 147.782 327.058 318.851 307.592C489.823 288.126 822.343 154.815 920.49 128.467C1018.64 102.119 1267.24 28.8761 1485.72 52.7661C1704.19 76.6561 1804.01 121.88 1804.01 121.88L1761.12 62.5974Z" fill="#507DC6"/>
<path opacity="0.3" d="M-776.956 293.337C-776.956 293.337 -536.3 360.878 -320.967 334.53C-105.633 308.182 404.239 131.219 462.832 113.916C521.426 96.6135 794.862 5.47773 1079.29 72.8218C1363.72 140.166 1433.4 158.354 1803.81 355.864L1794.29 300.71C1794.29 300.71 1610.66 214.294 1520.36 178.115C1430.07 141.936 1238.58 75.7712 1080.17 48.342C921.766 20.9128 836.378 28.8761 665.309 48.342C494.337 67.8079 161.817 201.12 63.6699 227.467C-34.4767 253.815 -283.082 327.058 -501.556 303.168C-719.932 279.377 -819.649 234.054 -819.649 234.054L-776.956 293.337Z" fill="#507DC6"/>
</g>
<defs>
<clipPath id="clip0_1182_1044">
<rect width="1440" height="358" fill="white"/>
</clipPath>
</defs>
</svg>
