<svg width="151" height="150" viewBox="0 0 151 150" fill="none" xmlns="http://www.w3.org/2000/svg">
<circle cx="75.5" cy="75" r="75" fill="#ED6A6A"/>
<path d="M62.2639 92.1689C59.7617 89.1008 58.4143 88.85 55.0896 90.7457C51.9807 87.386 49.9917 87.3801 47.0753 90.979C44.0131 89.165 40.8867 87.3451 37.8129 85.4437C37.5737 85.292 37.5154 84.4229 37.7079 84.0671C40.7059 78.5726 43.7332 73.1015 46.842 67.6711C47.0753 67.2628 48.2069 66.8954 48.5744 67.1112C52.2607 69.2343 55.807 68.2486 59.3942 66.872C60.9807 66.2654 62.6139 65.7638 64.2588 65.3438C65.1512 65.1164 66.1136 65.163 67.041 65.0814C67.1052 65.2388 67.1635 65.4022 67.2276 65.5597C66.5102 66.1429 65.8161 66.7554 65.0753 67.3037C63.0747 68.791 61.0741 70.2726 59.0384 71.7074C57.4461 72.8332 56.2678 74.128 56.8103 76.2628C57.2711 78.0827 59.3534 79.7625 61.4298 79.8267C62.4914 79.8617 63.6346 79.7042 64.6204 79.3192C68.2367 77.9018 71.8239 76.3912 75.3877 74.8396C76.5776 74.3205 77.4934 74.3788 78.5491 75.2188C85.5893 80.8124 92.6761 86.3477 99.7455 91.9006C99.938 92.0522 100.125 92.2039 100.305 92.3672C101.939 93.8137 102.265 95.3127 101.239 96.6484C100.142 98.0658 98.4681 98.2058 96.7416 96.8643C90.7455 92.2039 84.7902 87.4968 78.7999 82.8247C78.2691 82.4106 77.6042 82.1715 76.9976 81.8565C76.8693 82.049 76.7468 82.2414 76.6184 82.4339C77.0909 82.9239 77.5109 83.478 78.0358 83.898C82.3054 87.316 86.5925 90.7048 90.8738 94.1054C91.5387 94.6361 92.2095 95.1611 92.8511 95.7152C94.5251 97.1617 94.8168 98.7716 93.6735 100.125C92.5653 101.437 90.9963 101.501 89.3165 100.206C85.3793 97.1559 81.4655 94.0704 77.5459 91.0023C76.4435 90.1391 75.3819 89.2233 74.227 88.4475C73.7195 88.1092 73.0196 88.0568 72.4072 87.8759C72.7513 88.4417 72.9846 89.1533 73.4687 89.5499C75.9943 91.6439 78.5899 93.6504 81.1447 95.7035C82.7079 96.9576 84.2827 98.2 85.7876 99.524C87.135 100.714 87.2691 102.12 86.2951 103.385C85.2452 104.75 83.7928 104.989 82.2996 103.893C80.2931 102.423 78.3333 100.883 76.4085 99.3024C75.9827 98.9524 75.691 98.3516 75.5161 97.8092C74.7753 95.5111 73.6904 94.712 71.3573 94.4145C70.5057 94.3037 69.5083 93.7845 68.9542 93.1313C66.8077 90.6115 65.2095 90.2965 62.2639 92.1689Z" fill="white"/>
<path d="M57.7727 75.248C58.3385 74.4839 58.7235 73.6206 59.3826 73.119C62.5848 70.7042 65.6878 68.0911 69.1583 66.1313C71.9172 64.5739 75.1894 63.9498 78.1642 62.7366C80.6081 61.7392 82.7721 61.9375 85.0877 63.2091C88.0099 64.8189 91.1538 66.0263 94.0877 67.607C95.9309 68.6044 97.5524 68.5636 99.4305 67.7587C102.469 66.4579 102.516 66.5454 104.097 69.3918C106.727 74.1164 109.323 78.8585 112 83.5597C112.642 84.6913 112.519 85.4029 111.464 86.1436C109.125 87.7827 106.797 89.4392 104.546 91.1948C103.28 92.1864 102.335 92.1689 101.058 91.1365C94.6301 85.9395 88.1732 80.7833 81.6463 75.7204C76.5835 71.7949 78.8174 72.1683 72.938 74.478C70.0566 75.6096 67.2393 76.9045 64.3754 78.1002C62.3923 78.9285 60.1233 78.6077 58.9626 77.2894C58.5076 76.7703 58.251 76.0762 57.7727 75.248Z" fill="white"/>
<path d="M46.3461 64.4572C46.0778 65.1163 45.932 65.5771 45.7045 65.9971C42.5315 71.8649 39.3351 77.721 36.1796 83.6005C35.5846 84.7087 34.8497 84.8778 33.8056 84.3062C29.6644 82.0198 25.5231 79.7333 21.3643 77.476C20.2152 76.8519 20.0169 76.1345 20.6585 74.9737C23.849 69.1818 27.0163 63.3782 30.1251 57.5454C30.8426 56.198 31.6592 56.0638 32.9016 56.7521C36.9845 59.0211 41.0966 61.2375 45.1796 63.5006C45.6112 63.7398 45.9612 64.1364 46.3461 64.4572Z" fill="white"/>
<path d="M130.268 77.3652C129.831 77.5752 129.388 77.7735 128.962 78.0068C124.657 80.3749 120.353 82.7372 116.06 85.1228C115.109 85.6478 114.444 85.4086 113.954 84.5045C110.699 78.4734 107.462 72.4365 104.196 66.4112C103.648 65.3963 103.828 64.7722 104.861 64.2181C108.926 62.0424 112.968 59.8318 116.999 57.592C118.346 56.8454 119.227 56.9037 120.038 58.4494C123.053 64.1947 126.191 69.8759 129.277 75.5862C129.504 76.012 129.673 76.4669 129.866 76.9044C130 77.056 130.134 77.2135 130.268 77.3652Z" fill="white"/>
<path d="M70.9664 95.5169C73.457 95.5811 74.7985 97.0801 74.3494 98.8358C73.7603 101.116 73.0195 103.374 72.1679 105.567C71.6138 107.002 69.8931 107.614 68.4933 107.037C66.9884 106.418 66.376 105.223 66.8367 103.66C67.4725 101.513 68.0908 99.3374 69.0124 97.3134C69.4148 96.4268 70.5522 95.8785 70.9664 95.5169Z" fill="white"/>
<path d="M68.161 95.4411C67.4203 97.4651 66.627 100.078 65.5071 102.54C64.9122 103.846 63.4073 103.98 62.1416 103.485C60.835 102.977 60.0301 101.793 60.4092 100.434C61.0684 98.0542 61.9316 95.7094 62.894 93.4346C63.4598 92.0989 64.7372 91.7606 66.1312 92.1339C67.4903 92.5014 68.0502 93.4929 68.161 95.4411Z" fill="white"/>
<path d="M61.4881 93.0904C60.6423 95.3069 60.1932 97.1967 59.2074 98.7366C58.7525 99.4482 57.2185 99.8156 56.2152 99.7456C54.8795 99.6523 53.9754 98.4333 54.2321 97.1326C54.5995 95.2544 55.1653 93.3296 56.1102 91.6964C56.501 91.014 58.2159 90.594 59.1025 90.8448C60.0415 91.1015 60.7123 92.3088 61.4881 93.0904Z" fill="white"/>
<path d="M50.6451 96.3802C49.0585 96.3919 47.8162 95.1086 47.8162 93.4638C47.8162 91.1307 49.3619 89.2817 51.2575 89.3225C52.6982 89.3575 53.9873 90.6757 54.0281 92.1572C54.0864 94.3737 52.4882 96.3685 50.6451 96.3802Z" fill="white"/>
<path d="M75.2185 100.207C76.4784 101.338 77.5458 102.126 78.3916 103.111C79.3773 104.26 78.9865 106.156 77.7733 106.984C76.7234 107.702 74.2328 107.34 73.5912 106.348C73.4454 106.121 73.3404 105.754 73.4162 105.514C73.9411 103.864 74.5244 102.231 75.2185 100.207Z" fill="white"/>
</svg>
