<svg width="151" height="150" viewBox="0 0 151 150" fill="none" xmlns="http://www.w3.org/2000/svg">
<g clip-path="url(#clip0_889_4379)">
<path d="M75.5 150C116.921 150 150.5 116.421 150.5 75C150.5 33.5786 116.921 0 75.5 0C34.0786 0 0.5 33.5786 0.5 75C0.5 116.421 34.0786 150 75.5 150Z" fill="#507DC6"/>
<path d="M84.4661 103.37C67.0758 103.37 49.8254 103.37 32.5283 103.37C32.8547 100.526 33.1344 97.7748 33.5074 95.024C33.6006 94.5112 34.1601 93.9983 34.673 93.7186C36.3048 92.7861 37.9832 91.8537 39.7082 91.0611C44.1374 89.1496 48.0071 86.3988 51.6437 83.3217C52.7626 82.3893 52.8559 80.8973 52.1099 79.5919C50.5247 76.8878 48.9395 74.1837 47.4476 71.4329C47.028 70.6403 46.7949 69.6612 46.655 68.7754C46.5618 68.2159 46.8415 67.6098 47.028 67.0504C47.2145 66.3977 47.5875 65.7916 47.6341 65.1855C47.8206 63.0874 47.5875 60.8962 48.0071 58.8448C48.8463 54.6487 52.2031 51.9446 56.5857 51.5716C58.7303 51.3851 60.9216 51.4317 63.0196 52.1777C66.7028 53.4831 69.1272 56.6535 69.2671 60.6164C69.3137 61.9685 69.3137 63.3205 69.2671 64.6726C69.2671 65.6517 69.3137 66.4909 70.013 67.3301C70.386 67.843 70.2928 68.9153 70.1063 69.6146C69.1272 73.2046 66.9826 76.2351 65.0244 79.3588C64.092 80.8507 64.2318 82.3893 65.5372 83.5082C69.8732 87.3313 74.9084 90.082 80.1768 92.4132C82.4147 93.3922 83.9532 94.6977 83.86 97.5417C83.7668 99.4066 84.233 101.318 84.4661 103.37Z" fill="white"/>
<path d="M118.92 101.272C119.106 103.276 119.106 103.276 117.335 103.276C116.635 103.276 115.936 103.23 115.237 103.276C114.304 103.37 114.025 102.95 114.025 102.064C114.071 96.0965 114.025 90.1288 114.025 84.1611C114.025 80.6178 114.025 77.1211 114.025 73.5777C114.025 72.9716 114.025 72.5054 113.325 72.1791C108.337 69.9412 103.395 67.7033 98.4059 65.4188C98.266 65.3721 98.1262 65.3721 97.7532 65.3255C97.7532 65.9316 97.7532 66.4444 97.7532 66.9573C97.7532 78.5664 97.7532 90.1288 97.7532 101.738C97.7532 103.276 97.7532 103.276 96.2613 103.276C93.697 103.276 91.1328 103.276 88.5685 103.276C86.8435 103.276 86.7968 103.183 86.9833 101.412C87.0299 101.412 87.0299 101.365 87.0766 101.365C89.0347 100.992 89.0347 100.992 89.0347 98.8939C89.0347 89.8025 89.0347 80.7576 89.0347 71.6662C89.0347 70.7804 89.2678 70.1276 89.8739 69.4749C92.3449 66.9107 94.7693 64.2998 97.2869 61.7355C97.5201 61.4558 98.1728 61.3626 98.5458 61.5024C99.6181 61.8754 100.597 62.3883 101.903 62.9477C101.903 61.4092 101.903 60.0105 101.856 58.6118C101.856 58.4253 101.483 58.2388 101.25 58.099C96.4477 55.7678 91.599 53.4833 86.7968 51.1522C86.6569 51.0589 86.4705 51.0589 86.0975 50.9191C86.0975 65.1856 86.0975 79.359 86.0975 93.5323C83.9995 91.0147 81.0622 90.0356 78.4047 88.6835C77.6121 88.3105 77.3324 87.8909 77.3324 87.0051C77.379 77.6805 77.3324 68.4026 77.379 59.0781C77.379 58.4253 77.6588 57.6327 78.0784 57.1199C80.4561 54.2293 82.9271 51.3853 85.3049 48.4947C85.8644 47.7953 86.3306 47.6088 87.1698 48.0751C88.009 48.5879 88.9415 48.9143 90.0604 49.4738C90.0604 47.5622 90.0604 45.8372 90.0138 44.1121C90.0138 43.879 89.6874 43.5993 89.4543 43.4594C84.6056 41.1283 79.7568 38.7971 74.908 36.466C74.7681 36.4194 74.6283 36.4194 74.3486 36.3728C74.3486 53.0637 74.3486 69.708 74.3486 86.6787C73.2762 85.9794 72.3904 85.4665 71.5978 84.8604C70.2924 83.8814 69.0336 82.8557 67.7281 81.9232C66.9821 81.4104 67.0288 80.9441 67.495 80.1982C69.0802 77.494 70.6187 74.7899 72.064 71.9926C72.5303 71.0601 72.81 69.9412 72.9032 68.8688C72.9965 68.0296 72.7167 67.1438 72.5303 66.258C72.3438 65.4187 72.0174 64.5795 71.9242 63.7403C71.6444 61.5957 71.6911 59.4044 71.2248 57.3064C70.6187 54.5556 68.8471 52.4576 66.4693 50.9191C65.8166 50.4995 65.5835 50.0332 65.6301 49.2873C65.6767 48.4947 65.7233 47.6555 65.6301 46.8629C65.2571 44.3452 66.0963 42.3405 67.868 40.5222C69.966 38.3309 71.8309 35.9531 73.7424 33.622C74.162 33.1092 74.535 32.9227 75.1878 33.249C80.7359 35.9532 86.3306 38.6573 91.9253 41.3148C92.7179 41.6878 92.9977 42.1074 92.9977 42.9932C92.951 45.1845 93.0443 47.3291 92.951 49.5204C92.9044 50.5461 93.324 51.0123 94.2099 51.4319C97.4268 52.9238 100.551 54.509 103.768 55.9543C104.607 56.3273 104.886 56.8402 104.84 57.726C104.747 59.451 104.84 61.2227 104.793 62.9477C104.793 63.7869 105.026 64.2532 105.866 64.6262C109.456 66.2113 112.999 67.8431 116.589 69.4283C117.428 69.8013 117.708 70.2675 117.708 71.1533C117.661 80.6178 117.708 90.0822 117.661 99.5466C117.661 100.572 117.661 101.365 118.92 101.272Z" fill="white"/>
<path d="M101.623 71.1067C103.162 71.806 104.467 72.4121 105.772 73.0182C107.358 73.7642 108.896 74.5102 110.528 75.2095C111.134 75.4892 111.414 75.8156 111.367 76.5149C111.321 77.4008 111.367 78.2866 111.367 79.3589C109.782 78.8927 108.383 78.4731 106.985 78.0535C105.493 77.5873 104.047 77.121 102.556 76.7014C101.903 76.5149 101.623 76.1886 101.623 75.4892C101.67 74.0905 101.623 72.7385 101.623 71.1067Z" fill="white"/>
<path d="M101.623 80.8508C103.068 81.2238 104.281 81.5502 105.539 81.8299C106.938 82.2029 108.337 82.7157 109.782 82.9489C111.087 83.182 111.554 83.7881 111.367 85.0469C111.274 85.6064 111.367 86.1658 111.367 86.8652C108.989 86.5854 106.752 86.3523 104.56 86.1192C104.374 86.1192 104.187 86.026 104.001 86.026C101.67 85.6996 101.67 85.6996 101.67 83.3218C101.623 82.5759 101.623 81.8765 101.623 80.8508Z" fill="white"/>
<path d="M101.623 98.9871C104.98 98.9871 108.057 98.9871 111.321 98.9871C111.321 100.246 111.367 101.411 111.274 102.577C111.274 102.81 110.808 103.183 110.528 103.183C107.824 103.23 105.12 103.23 102.416 103.183C102.136 103.183 101.67 102.81 101.67 102.577C101.576 101.411 101.623 100.246 101.623 98.9871Z" fill="white"/>
<path d="M101.67 94.4647C101.67 92.8795 101.67 91.5275 101.67 90.0355C103.068 90.1288 104.467 90.222 105.819 90.3153C107.264 90.4085 108.756 90.595 110.202 90.6882C110.994 90.7349 111.367 90.968 111.367 91.8538C111.274 94.9309 111.787 94.4181 108.803 94.4181C106.472 94.5113 104.141 94.4647 101.67 94.4647Z" fill="white"/>
</g>
<defs>
<clipPath id="clip0_889_4379">
<rect width="151" height="150" fill="white"/>
</clipPath>
</defs>
</svg>
