<svg width="151" height="150" viewBox="0 0 151 150" fill="none" xmlns="http://www.w3.org/2000/svg">
<g clip-path="url(#clip0_1171_1022)">
<path d="M75.5 150C116.921 150 150.5 116.421 150.5 75C150.5 33.5786 116.921 0 75.5 0C34.0786 0 0.5 33.5786 0.5 75C0.5 116.421 34.0786 150 75.5 150Z" fill="#507DC6"/>
<path d="M85.5728 107.84C65.9704 107.84 46.5256 107.84 27.0283 107.84C27.3962 104.634 27.7115 101.533 28.1319 98.4327C28.237 97.8546 28.8677 97.2765 29.4458 96.9612C31.2851 95.9101 33.1771 94.859 35.1215 93.9656C40.1141 91.8109 44.4761 88.7103 48.5752 85.2418C49.8365 84.1907 49.9416 82.509 49.1008 81.0375C47.314 77.9894 45.5271 74.9413 43.8454 71.8406C43.3724 70.9472 43.1097 69.8436 42.952 68.8451C42.8469 68.2144 43.1622 67.5313 43.3724 66.9006C43.5826 66.1649 44.0031 65.4817 44.0556 64.7985C44.2658 62.4336 44.0031 59.9636 44.4761 57.6512C45.422 52.9214 49.2059 49.8733 54.1459 49.4529C56.5633 49.2426 59.0333 49.2952 61.3983 50.136C65.55 51.6075 68.2828 55.1812 68.4404 59.6482C68.493 61.1723 68.493 62.6963 68.4404 64.2204C68.4404 65.324 68.493 66.27 69.2813 67.2159C69.7017 67.794 69.5966 69.0027 69.3864 69.7911C68.2828 73.8377 65.8653 77.2536 63.6581 80.7747C62.607 82.4564 62.7647 84.1907 64.2362 85.452C69.1236 89.7614 74.7994 92.862 80.7379 95.4897C83.2605 96.5933 84.9948 98.0648 84.8897 101.271C84.7845 103.373 85.3101 105.527 85.5728 107.84Z" fill="white"/>
<path d="M124.409 105.475C124.62 107.735 124.62 107.735 122.623 107.735C121.834 107.735 121.046 107.682 120.258 107.735C119.207 107.84 118.891 107.367 118.891 106.368C118.944 99.6416 118.891 92.9147 118.891 86.1879C118.891 82.1938 118.891 78.2523 118.891 74.2583C118.891 73.5751 118.891 73.0495 118.103 72.6817C112.48 70.1591 106.909 67.6365 101.286 65.0614C101.128 65.0088 100.971 65.0088 100.55 64.9563C100.55 65.6395 100.55 66.2176 100.55 66.7957C100.55 79.8815 100.55 92.9147 100.55 106.001C100.55 107.735 100.55 107.735 98.8685 107.735C95.9781 107.735 93.0876 107.735 90.1972 107.735C88.2527 107.735 88.2001 107.63 88.4104 105.633C88.4629 105.633 88.4629 105.58 88.5155 105.58C90.7227 105.16 90.7227 105.16 90.7227 102.795C90.7227 92.5468 90.7227 82.3515 90.7227 72.1036C90.7227 71.105 90.9855 70.3693 91.6687 69.6335C94.454 66.7431 97.1868 63.8001 100.025 60.9097C100.287 60.5944 101.023 60.4892 101.444 60.6469C102.652 61.0673 103.756 61.6454 105.227 62.2761C105.227 60.5418 105.227 58.9652 105.175 57.3886C105.175 57.1784 104.754 56.9682 104.492 56.8105C99.0787 54.1828 93.6131 51.6077 88.2001 48.98C88.0425 48.8749 87.8322 48.8749 87.4118 48.7173C87.4118 64.7986 87.4118 80.7749 87.4118 96.7511C85.0469 93.9132 81.736 92.8096 78.7405 91.2856C77.8471 90.8651 77.5318 90.3922 77.5318 89.3936C77.5843 78.883 77.5318 68.4248 77.5844 57.9141C77.5844 57.1784 77.8997 56.285 78.3727 55.7069C81.0529 52.4486 83.8382 49.2428 86.5184 45.9845C87.1491 45.1962 87.6746 44.986 88.6206 45.5115C89.5665 46.0896 90.6176 46.4575 91.8789 47.0881C91.8789 44.9334 91.8789 42.989 91.8263 41.0445C91.8263 40.7817 91.4584 40.4664 91.1957 40.3087C85.7301 37.6811 80.2646 35.0534 74.799 32.4257C74.6413 32.3732 74.4837 32.3732 74.1684 32.3206C74.1684 51.1347 74.1684 69.8963 74.1684 89.0258C72.9596 88.2375 71.9611 87.6594 71.0677 86.9762C69.5962 85.8726 68.1773 84.7164 66.7058 83.6653C65.8649 83.0872 65.9175 82.5617 66.443 81.7208C68.2298 78.6727 69.9641 75.6246 71.5932 72.4714C72.1188 71.4204 72.4341 70.1591 72.5392 68.9504C72.6443 68.0044 72.329 67.0059 72.1188 66.0074C71.9086 65.0614 71.5407 64.1154 71.4356 63.1695C71.1203 60.752 71.1728 58.282 70.6473 55.9171C69.9641 52.8164 67.9671 50.4515 65.2868 48.7173C64.5511 48.2443 64.2883 47.7188 64.3409 46.8779C64.3934 45.9845 64.446 45.0385 64.3409 44.1451C63.9205 41.3072 64.8664 39.0474 66.8634 36.9979C69.2283 34.5278 71.3305 31.8476 73.4852 29.22C73.9581 28.6419 74.3786 28.4317 75.1143 28.7995C81.3682 31.8476 87.6746 34.8957 93.981 37.8913C94.8744 38.3117 95.1898 38.7847 95.1898 39.7832C95.1372 42.2532 95.2423 44.6707 95.1372 47.1407C95.0846 48.2969 95.5576 48.8224 96.5561 49.2954C100.182 50.9771 103.703 52.7639 107.33 54.393C108.276 54.8135 108.591 55.3916 108.538 56.3901C108.433 58.3346 108.538 60.3316 108.486 62.2761C108.486 63.222 108.749 63.7476 109.694 64.168C113.741 65.9548 117.735 67.7942 121.782 69.581C122.728 70.0014 123.043 70.527 123.043 71.5255C122.991 82.1938 123.043 92.8622 122.991 103.531C122.991 104.687 122.991 105.58 124.409 105.475Z" fill="white"/>
<path d="M104.913 71.4728C106.647 72.2611 108.118 72.9443 109.59 73.6275C111.377 74.4684 113.111 75.3093 114.95 76.0976C115.633 76.4129 115.949 76.7807 115.896 77.569C115.844 78.5676 115.896 79.5661 115.896 80.7748C114.109 80.2493 112.533 79.7763 110.956 79.3033C109.275 78.7778 107.645 78.2522 105.964 77.7793C105.228 77.569 104.913 77.2012 104.913 76.4129C104.965 74.8363 104.913 73.3122 104.913 71.4728Z" fill="white"/>
<path d="M104.913 82.4565C106.542 82.877 107.908 83.2448 109.327 83.5602C110.904 83.9806 112.48 84.5587 114.109 84.8214C115.581 85.0842 116.106 85.7674 115.896 87.1864C115.791 87.817 115.896 88.4476 115.896 89.2359C113.216 88.9206 110.693 88.6579 108.223 88.3951C108.013 88.3951 107.803 88.29 107.593 88.29C104.965 87.9221 104.965 87.9221 104.965 85.2419C104.913 84.401 104.913 83.6127 104.913 82.4565Z" fill="white"/>
<path d="M104.912 102.9C108.696 102.9 112.164 102.9 115.843 102.9C115.843 104.319 115.896 105.633 115.791 106.946C115.791 107.209 115.265 107.63 114.95 107.63C111.902 107.682 108.854 107.682 105.805 107.63C105.49 107.63 104.965 107.209 104.965 106.946C104.86 105.633 104.912 104.319 104.912 102.9Z" fill="white"/>
<path d="M104.965 97.8021C104.965 96.0153 104.965 94.4913 104.965 92.8096C106.541 92.9147 108.118 93.0198 109.642 93.1249C111.271 93.23 112.953 93.4402 114.582 93.5453C115.476 93.5979 115.896 93.8606 115.896 94.8592C115.791 98.3277 116.369 97.7496 113.006 97.7496C110.378 97.8547 107.75 97.8021 104.965 97.8021Z" fill="white"/>
</g>
<defs>
<clipPath id="clip0_1171_1022">
<rect width="151" height="150" fill="white"/>
</clipPath>
</defs>
</svg>
