<svg width="150" height="150" viewBox="0 0 150 150" fill="none" xmlns="http://www.w3.org/2000/svg">
<g clip-path="url(#clip0_858_689)">
<path d="M75 150C116.421 150 150 116.421 150 75C150 33.5786 116.421 0 75 0C33.5786 0 0 33.5786 0 75C0 116.421 33.5786 150 75 150Z" fill="#FB5353"/>
<path d="M75.4156 47.2921C70.9083 61.0627 66.5123 74.4991 62.0435 88.1668C72.9992 91.753 83.8605 95.3092 95.1118 98.9896C94.8847 95.5577 94.5891 92.4086 94.4905 89.2551C94.4005 86.3973 93.4194 83.8951 92.1726 81.3715C86.894 70.7073 81.7225 59.9916 76.5039 49.2973C76.2254 48.736 75.9041 48.1962 75.4156 47.2921Z" fill="white"/>
<path d="M96.1272 35.0254C89.2076 39.0872 82.7336 42.8876 76.144 46.7522C79.6016 53.8475 82.9864 60.7928 86.624 68.2607C89.8503 56.9838 92.918 46.2509 96.1272 35.0254Z" fill="white"/>
<path d="M62.1165 85.4332C64.6144 77.7853 66.9195 70.7372 69.2717 63.5306C62.3864 61.0884 55.7239 58.7276 48.5691 56.1868C53.1275 66.0285 57.4934 75.4502 62.1165 85.4332Z" fill="white"/>
<path d="M95.1631 88.3167C95.6259 94.5508 96.0929 100.781 96.5556 107.015C96.577 107.297 96.637 107.58 96.6627 107.863C97.0912 112.1 97.0912 112.105 101.251 112.773C104.478 113.291 107.708 113.801 111.423 114.388C105.977 105.404 100.754 96.7745 95.5273 88.1497C95.4074 88.2054 95.2831 88.2611 95.1631 88.3167Z" fill="white"/>
<path d="M87.9478 70.3559C93.9976 62.4852 100.043 54.6144 106.5 46.2124C101.483 48.179 97.0268 49.8843 92.6137 51.7052C92.1638 51.8895 91.881 52.7121 91.7097 53.2905C90.2872 58.1321 88.8904 62.9779 87.5451 67.8409C87.3394 68.5821 87.4337 69.409 87.3908 70.1931C87.5793 70.2488 87.7636 70.3045 87.9478 70.3559Z" fill="white"/>
<path d="M47.9261 56.7224C44.6011 59.6316 41.5121 62.3352 38.0711 65.3429C42.8701 65.3429 47.2401 65.3429 51.9233 65.3429C50.5651 62.4252 49.2841 59.6573 47.9261 56.7224Z" fill="white"/>
</g>
<defs>
<clipPath id="clip0_858_689">
<rect width="150" height="150" fill="white"/>
</clipPath>
</defs>
</svg>
