<svg width="150" height="150" viewBox="0 0 150 150" fill="none" xmlns="http://www.w3.org/2000/svg">
<g clip-path="url(#clip0_1171_1012)">
<path d="M75 150C116.421 150 150 116.421 150 75C150 33.5786 116.421 0 75 0C33.5786 0 0 33.5786 0 75C0 116.421 33.5786 150 75 150Z" fill="#507DC6"/>
<path d="M108.963 51.9247C108.44 53.0739 107.507 53.4446 106.276 53.4075C103.888 53.3334 101.5 53.4075 99.1489 53.3705C97.619 53.3705 96.8354 52.592 96.8354 51.1091C96.8354 50.5531 96.8354 50.0341 96.8354 49.4409C94.1488 49.4409 91.4994 49.4409 88.7382 49.4409C88.9994 49.6263 89.1859 49.7746 89.3725 49.9229C95.6041 54.2602 99.2982 60.1545 100.418 67.6058C100.604 68.9403 100.903 69.8671 102.246 70.6085C104.336 71.7207 105.231 74.4269 104.672 76.7253C104.112 79.0608 102.097 80.9514 99.8206 81.2479C97.1713 81.5816 94.8205 80.4695 93.6264 78.2823C91.9472 75.2054 93.0667 71.6465 96.2757 70.0154C96.5742 69.8671 96.7235 69.7559 96.6862 69.3852C96.2384 65.0479 94.7085 61.1183 91.9472 57.7078C88.9621 54.0007 85.156 51.5169 80.5663 50.2565C80.2304 50.1453 80.0439 50.2565 79.8946 50.5531C77.4318 54.3343 72.2451 54.3343 69.7824 50.5531C69.5585 50.2194 69.4092 50.1824 69.0361 50.2936C60.6403 52.5549 54.2595 59.7838 53.1027 68.3472C52.9535 69.311 53.0654 69.9042 54.0729 70.4603C56.2745 71.7207 57.282 74.3898 56.6476 76.7623C55.9759 79.3944 53.849 81.1367 51.0877 81.3221C48.7369 81.5074 46.3115 79.9875 45.304 77.7262C44.0353 74.8346 45.3413 71.387 48.2145 70.0525C48.7742 69.793 48.9981 69.4964 49.0354 68.9033C49.5951 62.8977 51.946 57.7078 56.1252 53.3705C57.5058 51.9247 59.1477 50.7013 60.603 49.4409C58.1402 49.4409 55.5282 49.4409 52.7669 49.4409C52.7669 49.997 52.7669 50.5901 52.7669 51.1833C52.7669 52.592 51.946 53.3705 50.528 53.4075C47.9533 53.4075 45.4159 53.4075 42.8412 53.4075C41.4232 53.4075 40.6396 52.592 40.6023 51.1833C40.6023 48.8478 40.6396 46.5123 40.565 44.1768C40.5277 42.9535 40.9008 42.0267 42.0576 41.5077C45.1174 41.5077 48.1772 41.5077 51.2743 41.5077C53.14 42.2862 52.6923 43.9544 52.7669 45.4743C53.0654 45.4743 53.2893 45.4743 53.5505 45.4743C58.4387 45.4743 63.3269 45.4743 68.2151 45.4743C68.8495 45.4743 69.2973 45.4372 69.5211 44.6958C69.6331 44.3251 69.9689 43.9915 70.1928 43.6578C71.163 42.4345 72.5063 41.8414 73.9616 41.4706C74.484 41.4706 75.0437 41.4706 75.5661 41.4706C75.6407 41.5077 75.7154 41.5448 75.8273 41.5819C77.9169 42.0267 79.3722 43.1759 80.3051 45.1036C80.3797 45.289 80.7902 45.4372 81.0514 45.4372C86.0888 45.4743 91.1263 45.4372 96.2011 45.4372C96.3877 45.4372 96.5742 45.4372 96.8354 45.4372C96.9101 43.9173 96.4623 42.2491 98.328 41.4706C101.388 41.4706 104.448 41.4706 107.545 41.4706C108.03 41.9526 108.515 42.4345 109 42.9164C108.963 45.9192 108.963 48.9219 108.963 51.9247Z" fill="white"/>
<path d="M72.8052 58.9311C72.8052 63.6762 72.8052 68.1989 72.8052 72.7215C72.8052 74.2415 72.8052 75.7614 72.8052 77.2813C72.8052 77.5037 72.6187 77.8003 72.3948 77.9115C68.1782 79.9875 67.5439 85.2145 71.238 88.1061C72.9918 89.4777 75.0441 89.7001 77.0964 88.8475C79.1114 88.0319 80.3801 86.4749 80.7159 84.2877C81.1264 81.5074 79.8204 79.1348 77.283 77.9486C77.0218 77.8003 76.8352 77.6891 76.8352 77.3554C76.8352 71.3128 76.8352 65.2703 76.8725 59.1906C76.8725 59.1535 76.8725 59.1535 76.9099 59.0423C77.0591 59.2277 77.1711 59.3389 77.283 59.4872C82.2832 66.9385 87.2833 74.3897 92.2835 81.841C93.0671 83.0273 93.1044 83.8429 92.1715 84.8067C88.664 88.4397 86.4624 92.7399 85.4549 97.6704C85.4176 97.7816 85.4176 97.8928 85.343 98.0411C84.9325 97.9299 84.5967 97.7445 84.1862 97.7075C82.9921 97.5221 81.7608 97.2626 80.5667 97.2255C77.4323 97.1514 74.2978 97.2256 71.1634 97.1885C68.8872 97.1885 66.5737 97.1143 64.3721 98.0782C64.1109 97.0773 63.8871 96.1134 63.6259 95.1866C62.5064 91.4425 60.6407 88.1061 57.954 85.2516C57.8421 85.1404 57.6928 84.9921 57.5809 84.8809C56.6107 83.8058 56.5734 83.0273 57.357 81.841C59.26 78.9866 61.1631 76.1321 63.1034 73.3147C66.1632 68.7549 69.223 64.1581 72.3202 59.5984C72.3948 59.4501 72.544 59.2647 72.8052 58.9311Z" fill="white"/>
<path d="M74.7823 109.311C71.0135 109.311 67.2821 109.311 63.5133 109.311C63.1775 109.311 62.8043 109.274 62.4685 109.162C61.3864 108.792 60.9013 107.717 61.2744 106.679C62.4685 103.416 65.379 101.303 68.812 101.266C72.8046 101.229 76.7973 101.229 80.8273 101.266C84.2602 101.303 87.2081 103.454 88.3648 106.716C88.8499 108.013 87.9544 109.274 86.4991 109.348C85.417 109.385 84.3348 109.348 83.2154 109.348C80.4168 109.311 77.5809 109.311 74.7823 109.311Z" fill="white"/>
<path d="M76.7973 83.3239C76.7973 84.399 75.9018 85.3257 74.8197 85.3257C73.7376 85.3257 72.8047 84.436 72.8047 83.361C72.8047 82.2859 73.7002 81.3591 74.7824 81.3591C75.8645 81.3591 76.7973 82.2488 76.7973 83.3239Z" fill="white"/>
</g>
<defs>
<clipPath id="clip0_1171_1012">
<rect width="150" height="150" fill="white"/>
</clipPath>
</defs>
</svg>
