<svg width="150" height="150" viewBox="0 0 150 150" fill="none" xmlns="http://www.w3.org/2000/svg">
<g clip-path="url(#clip0_1171_1012)">
<path d="M75 150C116.421 150 150 116.421 150 75C150 33.5786 116.421 0 75 0C33.5786 0 0 33.5786 0 75C0 116.421 33.5786 150 75 150Z" fill="#507DC6"/>
<path d="M75.4151 47.2921C70.9078 61.0627 66.5118 74.4991 62.043 88.1668C72.9987 91.753 83.86 95.3092 95.1113 98.9896C94.8842 95.5577 94.5886 92.4086 94.49 89.2551C94.4 86.3973 93.4189 83.8951 92.1721 81.3715C86.8935 70.7073 81.722 59.9916 76.5034 49.2973C76.2249 48.736 75.9036 48.1962 75.4151 47.2921Z" fill="white"/>
<path d="M96.127 35.0254C89.2074 39.0872 82.7334 42.8876 76.1438 46.7522C79.6014 53.8475 82.9862 60.7928 86.6238 68.2607C89.8501 56.9838 92.9178 46.2509 96.127 35.0254Z" fill="white"/>
<path d="M62.1163 85.4332C64.6142 77.7853 66.9193 70.7372 69.2715 63.5306C62.3862 61.0884 55.7237 58.7276 48.5689 56.1868C53.1273 66.0285 57.4932 75.4502 62.1163 85.4332Z" fill="white"/>
<path d="M95.1628 88.3167C95.6256 94.5508 96.0927 100.781 96.5554 107.015C96.5768 107.297 96.6367 107.58 96.6624 107.863C97.0909 112.1 97.091 112.105 101.251 112.773C104.478 113.291 107.708 113.801 111.423 114.388C105.977 105.404 100.754 96.7745 95.5271 88.1497C95.4072 88.2054 95.2828 88.2611 95.1628 88.3167Z" fill="white"/>
<path d="M87.9478 70.3559C93.9976 62.4852 100.043 54.6144 106.5 46.2124C101.483 48.179 97.0268 49.8843 92.6137 51.7052C92.1638 51.8895 91.881 52.7121 91.7097 53.2905C90.2872 58.1321 88.8904 62.9779 87.5451 67.8409C87.3394 68.5821 87.4337 69.409 87.3908 70.1931C87.5793 70.2488 87.7636 70.3045 87.9478 70.3559Z" fill="white"/>
<path d="M47.9257 56.7224C44.6007 59.6316 41.5117 62.3352 38.0707 65.3429C42.8697 65.3429 47.2397 65.3429 51.9229 65.3429C50.5647 62.4252 49.2837 59.6573 47.9257 56.7224Z" fill="white"/>
</g>
<defs>
<clipPath id="clip0_1171_1012">
<rect width="150" height="150" fill="white"/>
</clipPath>
</defs>
</svg>
