<svg width="150" height="150" viewBox="0 0 150 150" fill="none" xmlns="http://www.w3.org/2000/svg">
<circle cx="75" cy="75" r="75" fill="#ED6A6A"/>
<path d="M74.0785 47.2921C78.5858 61.0627 82.9818 74.4991 87.4506 88.1668C76.4949 91.753 65.6336 95.3092 54.3823 98.9896C54.6094 95.5577 54.905 92.4086 55.0036 89.2551C55.0936 86.3973 56.0747 83.8951 57.3215 81.3715C62.6001 70.7073 67.7716 59.9916 72.9902 49.2973C73.2687 48.736 73.59 48.1962 74.0785 47.2921Z" fill="white"/>
<path d="M53.3669 35.0254C60.2865 39.0872 66.7605 42.8876 73.3501 46.7522C69.8925 53.8475 66.5077 60.7928 62.8701 68.2607C59.6438 56.9838 56.5761 46.2509 53.3669 35.0254Z" fill="white"/>
<path d="M87.3776 85.4332C84.8797 77.7853 82.5746 70.7372 80.2224 63.5306C87.1077 61.0884 93.7702 58.7276 100.925 56.1868C96.3666 66.0285 92.0007 75.4502 87.3776 85.4332Z" fill="white"/>
<path d="M54.331 88.3167C53.8682 94.5508 53.4012 100.781 52.9385 107.015C52.9171 107.297 52.8571 107.58 52.8314 107.863C52.4029 112.1 52.4029 112.105 48.2426 112.773C45.0163 113.291 41.7858 113.801 38.071 114.388C43.5167 105.404 48.7396 96.7745 53.9668 88.1497C54.0867 88.2054 54.211 88.2611 54.331 88.3167Z" fill="white"/>
<path d="M61.5463 70.3559C55.4965 62.4852 49.451 54.6144 42.9941 46.2124C48.0114 48.179 52.4673 49.8843 56.8804 51.7052C57.3303 51.8895 57.6131 52.7121 57.7844 53.2905C59.2069 58.1321 60.6037 62.9779 61.949 67.8409C62.1547 68.5821 62.0604 69.409 62.1033 70.1931C61.9148 70.2488 61.7305 70.3045 61.5463 70.3559Z" fill="white"/>
<path d="M101.568 56.7224C104.893 59.6316 107.982 62.3352 111.423 65.3429C106.624 65.3429 102.254 65.3429 97.5708 65.3429C98.929 62.4252 100.21 59.6573 101.568 56.7224Z" fill="white"/>
</svg>
