<svg width="151" height="150" viewBox="0 0 151 150" fill="none" xmlns="http://www.w3.org/2000/svg">
<g clip-path="url(#clip0_858_708)">
<path d="M75.5 150C116.921 150 150.5 116.421 150.5 75C150.5 33.5786 116.921 0 75.5 0C34.0786 0 0.5 33.5786 0.5 75C0.5 116.421 34.0786 150 75.5 150Z" fill="#FB5353"/>
<path d="M60.0408 88.3192C59.005 88.9367 57.979 89.5689 56.9432 90.1865C56.4666 90.4734 56.0824 90.4345 55.7858 90.0406C55.1488 89.1993 54.5263 88.3483 53.9136 87.4876C53.6169 87.0694 53.6899 86.6317 54.0497 86.3789C54.3707 86.1552 54.8035 86.2427 55.105 86.622C55.4065 87.0013 55.6885 87.4001 55.9754 87.794C56.7 88.7763 56.4812 88.7325 57.5073 88.1149C58.4215 87.5654 59.3357 87.011 60.2645 86.447C59.3357 84.2052 56.7049 83.0916 54.5263 83.9474C52.0851 84.9005 50.9472 87.4438 51.8517 89.9239C52.6784 92.1851 55.3092 93.362 57.7018 92.5207C59.6469 91.835 60.887 89.6467 60.5757 88.0712C60.3812 88.149 60.2061 88.217 60.0408 88.3192Z" fill="white"/>
<path d="M105.995 76.5753C105.995 68.0458 105.995 53.1945 105.995 45.0006C105.995 41.7716 103.379 39.1554 100.15 39.1505C97.7234 39.1505 95.078 39.1457 93.3371 39.1408C92.8459 39.1408 92.7049 39.2915 92.7146 39.7681C92.7389 41.3631 92.7292 42.9533 92.7243 44.5483C92.7243 45.1416 92.2429 45.6182 91.6545 45.6182C80.8783 45.6182 70.1022 45.6182 59.326 45.6182C58.4799 45.6182 58.2708 45.4042 58.2708 44.5386C58.2659 42.9922 58.2708 41.4507 58.2708 39.9043C58.2708 39.1505 58.2708 39.1505 57.4927 39.1505C55.9804 39.1505 54.4729 39.1505 52.9605 39.1505C52.3916 39.1505 51.6524 39.1505 50.8598 39.1505C47.626 39.1457 45 41.7668 45 45.0006L45.0146 112.92C45.0146 116.149 47.6308 118.766 50.8646 118.771L100.15 118.785C103.379 118.785 106 116.169 106 112.94C105.995 103.569 105.995 85.3576 105.995 76.5753ZM69.65 57.1043C70.0536 57.0848 70.4572 57.0994 70.856 57.0994C72.7379 57.0994 74.6149 57.0994 76.4969 57.0994C78.6949 57.0994 80.8929 57.0946 83.0958 57.1043C83.3244 57.1043 83.6113 57.114 83.7572 57.2453C83.9468 57.4106 84.1365 57.717 84.1122 57.9358C84.0878 58.1547 83.8204 58.3832 83.6064 58.534C83.4751 58.6264 83.2514 58.6021 83.0667 58.6021C78.6852 58.6069 74.3037 58.6021 69.9223 58.6021C69.8202 58.6021 69.718 58.6069 69.6208 58.5923C69.1199 58.5388 68.8379 58.2617 68.8476 57.8337C68.8573 57.4398 69.1831 57.1237 69.65 57.1043ZM70.0049 62.1763C79.152 62.1763 88.2991 62.1763 97.4462 62.1763C98.2194 62.1763 98.6035 62.4291 98.6084 62.93C98.6133 63.4309 98.2194 63.6984 97.4656 63.7032C92.8654 63.7032 88.2651 63.7032 83.6697 63.7032C79.1229 63.7032 74.5712 63.7032 70.0244 63.7032C69.2172 63.7032 68.8427 63.4504 68.8524 62.9252C68.8573 62.4097 69.2074 62.1763 70.0049 62.1763ZM98.6084 77.932C98.6181 78.4134 98.2388 78.6712 97.5143 78.6712C88.3186 78.6712 79.1229 78.6712 69.9271 78.6712C69.7764 78.6712 69.6208 78.676 69.4749 78.6517C69.0664 78.5885 68.8476 78.3356 68.8524 77.9271C68.8622 77.5187 69.0956 77.2804 69.4992 77.222C69.6791 77.1977 69.8688 77.2075 70.0536 77.2075C74.6004 77.2075 79.1472 77.2075 83.694 77.2075C88.2894 77.2075 92.8897 77.2075 97.4851 77.2075C98.2291 77.2123 98.5938 77.4555 98.6084 77.932ZM65.5311 100.924C64.8941 101.327 64.2765 101.78 63.5957 102.086C63.0218 102.344 62.4529 102.601 62.166 102.849C62.2195 103.457 62.2487 103.788 62.2097 104.372C62.2243 107.965 58.7474 110.664 55.2072 110.056C52.3478 109.56 50.106 106.997 50.1547 103.944C50.2082 100.574 53.1745 97.8261 56.5396 98.0449C58.7085 98.1859 60.3424 99.212 61.4657 101.06C61.5338 101.172 61.6165 101.279 61.7429 101.468C62.6668 100.914 63.5568 100.384 64.4418 99.8539C64.5585 99.7858 64.6704 99.7129 64.7871 99.6497C65.2199 99.4211 65.6332 99.5086 65.8326 99.8782C66.0368 100.238 65.9201 100.676 65.5311 100.924ZM65.5311 85.2506C64.8941 85.6543 64.2765 86.1065 63.5957 86.4129C63.0218 86.6706 62.4529 86.9284 62.166 87.1764C62.2195 87.7842 62.2487 88.1149 62.2097 88.6984C62.2243 92.2921 58.7474 94.991 55.2072 94.3832C52.3478 93.8871 50.106 91.3244 50.1547 88.2705C50.2082 84.9005 53.1745 82.153 56.5396 82.3718C58.7085 82.5129 60.3424 83.5389 61.4657 85.3868C61.5338 85.4987 61.6165 85.6057 61.7429 85.7953C62.6668 85.2409 63.5568 84.7109 64.4418 84.1808C64.5585 84.1127 64.6704 84.0398 64.7871 83.9766C65.2199 83.748 65.6332 83.8356 65.8326 84.2051C66.0368 84.565 65.9201 85.0026 65.5311 85.2506ZM65.5311 69.5727C64.8941 69.9763 64.2765 70.4286 63.5957 70.735C63.0218 70.9927 62.4529 71.2504 62.166 71.4984C62.2195 72.1063 62.2487 72.437 62.2097 73.0205C62.2243 76.6142 58.7474 79.3131 55.2072 78.7052C52.3478 78.2092 50.106 75.6465 50.1547 72.5926C50.2082 69.2226 53.1745 66.4751 56.5396 66.6939C58.7085 66.8349 60.3424 67.861 61.4657 69.7089C61.5338 69.8207 61.6165 69.9277 61.7429 70.1174C62.6668 69.563 63.5568 69.0329 64.4418 68.5029C64.5585 68.4348 64.6704 68.3619 64.7871 68.2986C65.2199 68.0701 65.6332 68.1576 65.8326 68.5272C66.0368 68.8919 65.9201 69.3247 65.5311 69.5727ZM65.5311 53.8997C64.8941 54.3033 64.2765 54.7555 63.5957 55.0619C63.0218 55.3196 62.4529 55.5773 62.166 55.8254C62.2195 56.4332 62.2487 56.7639 62.2097 57.3474C62.2243 60.9411 58.7474 63.64 55.2072 63.0322C52.3478 62.5361 50.106 59.9734 50.1547 56.9195C50.2082 53.5495 53.1745 50.802 56.5396 51.0208C58.7085 51.1619 60.3424 52.1879 61.4657 54.0358C61.5338 54.1477 61.6165 54.2546 61.7429 54.4443C62.6668 53.8899 63.5568 53.3599 64.4418 52.8298C64.5585 52.7617 64.6704 52.6888 64.7871 52.6256C65.2199 52.397 65.6332 52.4845 65.8326 52.8541C66.0368 53.214 65.9201 53.6517 65.5311 53.8997ZM69.4019 72.1792C69.5819 72.1403 69.7667 72.1403 69.9514 72.1403C74.3135 72.1403 78.6754 72.1403 83.0375 72.1403C83.1396 72.1403 83.2369 72.1403 83.339 72.1452C83.8496 72.1841 84.1365 72.4418 84.1413 72.8649C84.1462 73.2977 83.8155 73.6041 83.3098 73.6089C82.2546 73.6186 81.1944 73.6138 80.1392 73.6138C78.9332 73.6138 77.7223 73.6138 76.5163 73.6138C74.2697 73.6138 72.0182 73.6089 69.7715 73.6186C69.3144 73.6186 68.974 73.4776 68.8622 73.0108C68.7649 72.6266 69.0178 72.257 69.4019 72.1792ZM69.7472 87.1229C71.9987 87.118 74.2454 87.1229 76.4969 87.1229C78.6803 87.1229 80.8589 87.1229 83.0423 87.1229C83.2271 87.1229 83.4216 87.1083 83.5918 87.1666C83.9274 87.2882 84.1705 87.5168 84.1462 87.9155C84.1219 88.3045 83.8885 88.5234 83.5237 88.5963C83.3633 88.6304 83.1882 88.6304 83.0229 88.6304C78.6755 88.6304 74.328 88.6304 69.9806 88.6304C69.898 88.6304 69.8104 88.6304 69.7278 88.6255C69.1491 88.5915 68.8427 88.3289 68.8524 87.862C68.8573 87.4244 69.2026 87.1229 69.7472 87.1229ZM69.6159 92.2046C69.7472 92.19 69.8834 92.1949 70.0195 92.1949C79.152 92.1949 88.2797 92.1949 97.4122 92.1949C97.6115 92.1949 97.8158 92.1997 98.0103 92.2435C98.3847 92.3261 98.6473 92.6082 98.5792 92.9583C98.5306 93.2209 98.268 93.4787 98.0297 93.6489C97.879 93.7558 97.6115 93.7169 97.3927 93.7169C92.8264 93.7218 88.2602 93.7169 83.694 93.7169C79.1763 93.7169 74.6636 93.7169 70.146 93.7169C69.9758 93.7169 69.8104 93.7267 69.6402 93.7121C69.1637 93.6732 68.8476 93.3765 68.8378 92.9729C68.8378 92.5547 69.1296 92.2629 69.6159 92.2046ZM69.4603 102.183C69.6402 102.154 69.8299 102.154 70.0098 102.154C74.3232 102.154 78.6366 102.154 82.9451 102.154C83.1445 102.154 83.3487 102.154 83.5481 102.188C83.9322 102.251 84.1413 102.504 84.1365 102.888C84.1365 103.292 83.8982 103.54 83.5043 103.613C83.3438 103.642 83.1688 103.627 83.0034 103.627C80.8395 103.627 78.6755 103.627 76.5115 103.627C74.328 103.627 72.1495 103.627 69.966 103.627C69.8153 103.627 69.6597 103.637 69.5138 103.618C69.115 103.559 68.8719 103.326 68.8524 102.918C68.8378 102.514 69.0518 102.251 69.4603 102.183ZM97.7866 108.69C97.6358 108.695 97.4851 108.695 97.3343 108.695C88.2553 108.695 79.1812 108.695 70.1022 108.695C69.9028 108.695 69.6986 108.704 69.4992 108.68C69.0907 108.631 68.8573 108.383 68.8524 107.98C68.8524 107.552 69.0956 107.299 69.5235 107.25C69.7083 107.231 69.8931 107.241 70.0779 107.241C74.6247 107.241 79.1715 107.241 83.7183 107.241C88.2505 107.241 92.7778 107.241 97.31 107.241C97.4608 107.241 97.6115 107.236 97.7623 107.241C98.2632 107.26 98.6133 107.566 98.6035 107.98C98.5987 108.379 98.268 108.665 97.7866 108.69Z" fill="white"/>
<path d="M60.0408 103.992C59.005 104.61 57.979 105.242 56.9432 105.86C56.4666 106.146 56.0824 106.108 55.7858 105.714C55.1488 104.872 54.5263 104.021 53.9136 103.161C53.6169 102.742 53.6899 102.305 54.0497 102.052C54.3707 101.828 54.8035 101.916 55.105 102.295C55.4065 102.674 55.6885 103.073 55.9754 103.467C56.7 104.449 56.4812 104.406 57.5073 103.788C58.4215 103.238 59.3357 102.684 60.2645 102.12C59.3357 99.8782 56.7049 98.7646 54.5263 99.6205C52.0851 100.574 50.9472 103.117 51.8517 105.597C52.6784 107.858 55.3092 109.035 57.7018 108.194C59.6469 107.508 60.887 105.32 60.5757 103.744C60.3812 103.822 60.2061 103.895 60.0408 103.992Z" fill="white"/>
<path d="M60.0408 56.9682C59.005 57.5857 57.979 58.2179 56.9432 58.8355C56.4666 59.1224 56.0824 59.0835 55.7858 58.6896C55.1488 57.8483 54.5263 56.9973 53.9136 56.1366C53.6169 55.7184 53.6899 55.2807 54.0497 55.0278C54.3707 54.8042 54.8035 54.8917 55.105 55.271C55.4065 55.6503 55.6885 56.0491 55.9754 56.443C56.7 57.4253 56.4812 57.3815 57.5073 56.7639C58.4215 56.2144 59.3357 55.66 60.2645 55.0959C59.3357 52.8541 56.7049 51.7405 54.5263 52.5964C52.0851 53.5495 50.9472 56.0928 51.8517 58.5729C52.6784 60.8341 55.3092 62.011 57.7018 61.1697C59.6469 60.484 60.887 58.2957 60.5757 56.7201C60.3812 56.7979 60.2061 56.8709 60.0408 56.9682Z" fill="white"/>
<path d="M60.0408 72.6412C59.005 73.2588 57.979 73.891 56.9432 74.5086C56.4666 74.7955 56.0824 74.7566 55.7858 74.3627C55.1488 73.5214 54.5263 72.6704 53.9136 71.8097C53.6169 71.3915 53.6899 70.9538 54.0497 70.7009C54.3707 70.4773 54.8035 70.5648 55.105 70.9441C55.4065 71.3234 55.6885 71.7222 55.9754 72.116C56.7 73.0984 56.4812 73.0546 57.5073 72.437C58.4215 71.8875 59.3357 71.3331 60.2645 70.769C59.3357 68.5272 56.7049 67.4136 54.5263 68.2695C52.0851 69.2226 50.9472 71.7659 51.8517 74.246C52.6784 76.5072 55.3092 77.684 57.7018 76.8428C59.6469 76.1571 60.887 73.9688 60.5757 72.3932C60.3812 72.471 60.2061 72.544 60.0408 72.6412Z" fill="white"/>
<path d="M75.466 44.1641C70.4475 44.1641 65.429 44.1593 60.4154 44.1739C59.9145 44.1739 59.754 44.0474 59.7589 43.532C59.7832 40.3273 59.7832 37.1178 59.7589 33.9132C59.754 33.3783 59.9291 33.281 60.4202 33.2859C62.9052 33.3102 65.3852 33.2956 67.8702 33.2956C68.7163 33.2956 68.94 33.0865 69.0032 32.2452C69.2123 29.3567 70.6955 27.4066 73.3798 26.3806C76.5067 25.1794 80.3629 26.9301 81.53 30.1055C81.7829 30.8009 81.885 31.5644 81.9871 32.3036C82.0941 33.0719 82.2935 33.2956 83.0764 33.2956C85.61 33.2956 88.1435 33.3053 90.6771 33.2907C91.0807 33.2907 91.2315 33.388 91.2266 33.8208C91.212 37.0789 91.212 40.3322 91.2266 43.5903C91.2315 44.062 91.071 44.1787 90.6187 44.1787C85.5662 44.1593 80.5137 44.1641 75.466 44.1641Z" fill="white"/>
</g>
<defs>
<clipPath id="clip0_858_708">
<rect width="151" height="150" fill="white"/>
</clipPath>
</defs>
</svg>
