<svg width="151" height="150" viewBox="0 0 151 150" fill="none" xmlns="http://www.w3.org/2000/svg">
<g clip-path="url(#clip0_1171_1034)">
<path d="M75.5 150C116.921 150 150.5 116.421 150.5 75C150.5 33.5786 116.921 0 75.5 0C34.0786 0 0.5 33.5786 0.5 75C0.5 116.421 34.0786 150 75.5 150Z" fill="#507DC6"/>
<g clip-path="url(#clip1_1171_1034)">
<path d="M116.065 47.9721C115.611 47.2121 114.862 46.6793 113.997 46.5054L68.1153 35.4442C66.6032 35.151 65.1114 35.9864 64.588 37.4312L47.0992 81.8605L52.9378 83.9882L69.5115 41.743L109.377 51.916C106.888 59.6344 100.963 75.7444 95.2838 90.7444C90.3325 103.832 87.4833 108.314 82.0679 109.229C82.0615 109.222 82.0556 109.216 82.0556 109.207C70.988 110.758 71.1867 96.6486 71.1867 96.6486L35.8399 82.3706C33.3281 98.2915 45.5616 102.121 45.5616 102.121L71.4403 113.87C71.4466 113.874 75.4864 115.798 79.8772 115.6C91.7205 115.321 95.8825 106.722 101.097 92.9441C108.632 73.0324 116.278 50.7217 116.354 50.4851C116.623 49.6409 116.517 48.7305 116.065 47.9721Z" fill="white"/>
<path d="M95.1516 65.8892C95.4211 65.9629 95.7002 66.0021 95.9758 66.0021C97.3389 66.0021 98.586 65.0932 98.9682 63.7142C99.4225 62.0579 98.4416 60.3468 96.7875 59.8955L83.3214 55.7392C81.6856 55.2864 79.9554 56.2594 79.5041 57.9142C79.0526 59.5704 80.0245 61.2817 81.685 61.7346L95.1516 65.8892Z" fill="white"/>
<path d="M74.1109 70.3613C73.5712 71.9926 74.4474 73.7494 76.0742 74.2938L89.4697 79.0807C89.7949 79.189 90.1146 79.2376 90.437 79.2394C91.7436 79.2463 92.9675 78.4221 93.4038 77.1172C93.945 75.4902 93.0703 73.7309 91.4371 73.1867L78.0466 68.4029C76.4102 67.8614 74.657 68.7375 74.1109 70.3613Z" fill="white"/>
<path d="M72.9324 81.3731C71.3027 80.8278 69.5429 81.7177 69.0101 83.3539C68.4743 84.9774 69.3674 86.7387 70.9971 87.2714L84.4206 92.0385C84.744 92.1481 85.0661 92.1951 85.3927 92.1951C86.6963 92.1951 87.9124 91.3648 88.3419 90.0608C88.8775 88.428 87.9877 86.67 86.358 86.1371L72.9324 81.3731Z" fill="white"/>
<path d="M72.4352 52.1152C74.3375 52.1152 75.8811 53.6164 75.8811 55.4655C75.8811 57.3161 74.3375 58.8156 72.4352 58.8156C70.5314 58.8156 68.9878 57.3159 68.9878 55.4655C68.988 53.6164 70.5314 52.1152 72.4352 52.1152Z" fill="white"/>
<path d="M67.5607 64.5697C69.4646 64.5697 71.0066 66.0694 71.0066 67.9183C71.0066 69.7658 69.4646 71.2653 67.5607 71.2653C65.6568 71.2653 64.1133 69.7658 64.1133 67.9183C64.1133 66.0695 65.6568 64.5697 67.5607 64.5697Z" fill="white"/>
<path d="M62.3614 77.4191C64.2654 77.4191 65.8088 78.9204 65.8088 80.7727C65.8088 82.6215 64.2654 84.1195 62.3614 84.1195C60.4576 84.1195 58.9141 82.6218 58.9141 80.7727C58.9141 78.9204 60.4576 77.4191 62.3614 77.4191Z" fill="white"/>
</g>
</g>
<defs>
<clipPath id="clip0_1171_1034">
<rect width="151" height="150" fill="white"/>
</clipPath>
<clipPath id="clip1_1171_1034">
<rect width="81" height="81" fill="white" transform="translate(35.5 35)"/>
</clipPath>
</defs>
</svg>
