<svg width="151" height="150" viewBox="0 0 151 150" fill="none" xmlns="http://www.w3.org/2000/svg">
<g clip-path="url(#clip0_889_4381)">
<path d="M75.5 150C116.921 150 150.5 116.421 150.5 75C150.5 33.5786 116.921 0 75.5 0C34.0786 0 0.5 33.5786 0.5 75C0.5 116.421 34.0786 150 75.5 150Z" fill="#507DC6"/>
<g clip-path="url(#clip1_889_4381)">
<path d="M110.624 51.7104C110.232 51.0536 109.584 50.5931 108.837 50.4428L69.1861 40.8838C67.8793 40.6304 66.5901 41.3523 66.1378 42.6009L51.024 80.9966L56.0697 82.8353L70.3926 46.3272L104.845 55.1187C102.693 61.7889 97.573 75.7111 92.665 88.6741C88.3861 99.9842 85.9238 103.857 81.2439 104.648C81.2384 104.643 81.2333 104.637 81.2333 104.629C71.6687 105.97 71.8403 93.7765 71.8403 93.7765L41.2937 81.4374C39.123 95.1963 49.6952 98.5055 49.6952 98.5055L72.0596 108.659C72.0649 108.662 75.5562 110.325 79.3507 110.154C89.5856 109.913 93.1824 102.481 97.6891 90.5751C104.2 73.3674 110.808 54.0866 110.873 53.8821C111.106 53.1526 111.014 52.3657 110.624 51.7104Z" fill="white"/>
<path d="M92.5507 67.1944C92.7836 67.2581 93.0247 67.2919 93.2629 67.2919C94.4409 67.2919 95.5187 66.5065 95.849 65.3147C96.2416 63.8833 95.3939 62.4046 93.9644 62.0146L82.327 58.4227C80.9134 58.0314 79.4182 58.8723 79.0281 60.3024C78.638 61.7337 79.4779 63.2125 80.9129 63.6039L92.5507 67.1944Z" fill="white"/>
<path d="M74.3674 71.059C73.9009 72.4688 74.6582 73.987 76.064 74.4575L87.6404 78.5943C87.9214 78.6879 88.1977 78.7299 88.4763 78.7315C89.6055 78.7374 90.6632 78.0251 91.0402 76.8974C91.5079 75.4914 90.7521 73.971 89.3406 73.5007L77.7686 69.3666C76.3544 68.8986 74.8393 69.6557 74.3674 71.059Z" fill="white"/>
<path d="M73.349 80.5755C71.9407 80.1042 70.4199 80.8732 69.9594 82.2872C69.4964 83.6902 70.2682 85.2124 71.6766 85.6728L83.2772 89.7925C83.5567 89.8871 83.835 89.9277 84.1172 89.9277C85.2438 89.9277 86.2947 89.2103 86.6659 88.0834C87.1288 86.6723 86.3598 85.153 84.9514 84.6925L73.349 80.5755Z" fill="white"/>
<path d="M72.9194 55.2909C74.5634 55.2909 75.8973 56.5882 75.8973 58.1862C75.8973 59.7855 74.5634 61.0813 72.9194 61.0813C71.2741 61.0813 69.9402 59.7853 69.9402 58.1862C69.9403 56.5882 71.2741 55.2909 72.9194 55.2909Z" fill="white"/>
<path d="M68.7065 66.054C70.3519 66.054 71.6845 67.35 71.6845 68.9478C71.6845 70.5444 70.3519 71.8403 68.7065 71.8403C67.0612 71.8403 65.7273 70.5444 65.7273 68.9478C65.7273 67.3501 67.0612 66.054 68.7065 66.054Z" fill="white"/>
<path d="M64.2133 77.1584C65.8588 77.1584 67.1926 78.4559 67.1926 80.0566C67.1926 81.6543 65.8588 82.9489 64.2133 82.9489C62.5681 82.9489 61.2341 81.6546 61.2341 80.0566C61.2341 78.4559 62.5681 77.1584 64.2133 77.1584Z" fill="white"/>
</g>
</g>
<defs>
<clipPath id="clip0_889_4381">
<rect width="151" height="150" fill="white"/>
</clipPath>
<clipPath id="clip1_889_4381">
<rect width="70" height="70" fill="white" transform="translate(41 40.5)"/>
</clipPath>
</defs>
</svg>
