<svg width="151" height="150" viewBox="0 0 151 150" fill="none" xmlns="http://www.w3.org/2000/svg">
<g clip-path="url(#clip0_1171_1034)">
<path d="M75.5 150C116.921 150 150.5 116.421 150.5 75C150.5 33.5786 116.921 0 75.5 0C34.0786 0 0.5 33.5786 0.5 75C0.5 116.421 34.0786 150 75.5 150Z" fill="#507DC6"/>
<path d="M60.041 88.3192C59.0052 88.9367 57.9792 89.5689 56.9434 90.1865C56.4668 90.4734 56.0826 90.4345 55.786 90.0406C55.149 89.1993 54.5265 88.3483 53.9138 87.4876C53.6171 87.0694 53.6901 86.6317 54.0499 86.3789C54.3709 86.1552 54.8037 86.2427 55.1052 86.622C55.4067 87.0013 55.6887 87.4001 55.9756 87.794C56.7002 88.7763 56.4814 88.7325 57.5075 88.1149C58.4217 87.5654 59.3359 87.011 60.2647 86.447C59.3359 84.2052 56.7051 83.0916 54.5265 83.9474C52.0853 84.9005 50.9474 87.4438 51.8519 89.9239C52.6786 92.1851 55.3094 93.362 57.702 92.5207C59.6471 91.835 60.8872 89.6467 60.5759 88.0712C60.3814 88.149 60.2063 88.217 60.041 88.3192Z" fill="white"/>
<path d="M105.995 76.5752C105.995 68.0457 105.995 53.1944 105.995 45.0005C105.995 41.7715 103.379 39.1553 100.15 39.1504C97.7234 39.1504 95.078 39.1456 93.3371 39.1407C92.8459 39.1407 92.7049 39.2914 92.7146 39.768C92.7389 41.363 92.7292 42.9532 92.7243 44.5482C92.7243 45.1415 92.2429 45.6181 91.6545 45.6181C80.8783 45.6181 70.1022 45.6181 59.326 45.6181C58.4799 45.6181 58.2708 45.4041 58.2708 44.5385C58.2659 42.9921 58.2708 41.4506 58.2708 39.9042C58.2708 39.1504 58.2708 39.1504 57.4927 39.1504C55.9804 39.1504 54.4729 39.1504 52.9605 39.1504C52.3916 39.1504 51.6524 39.1504 50.8598 39.1504C47.626 39.1456 45 41.7667 45 45.0005L45.0146 112.92C45.0146 116.149 47.6308 118.766 50.8646 118.771L100.15 118.785C103.379 118.785 106 116.169 106 112.94C105.995 103.569 105.995 85.3575 105.995 76.5752ZM69.65 57.1042C70.0536 57.0847 70.4572 57.0993 70.856 57.0993C72.7379 57.0993 74.6149 57.0993 76.4969 57.0993C78.6949 57.0993 80.8929 57.0945 83.0958 57.1042C83.3244 57.1042 83.6113 57.1139 83.7572 57.2452C83.9468 57.4105 84.1365 57.7169 84.1122 57.9357C84.0878 58.1546 83.8204 58.3831 83.6064 58.5339C83.4751 58.6263 83.2514 58.602 83.0667 58.602C78.6852 58.6068 74.3037 58.602 69.9223 58.602C69.8202 58.602 69.718 58.6068 69.6208 58.5922C69.1199 58.5387 68.8379 58.2616 68.8476 57.8336C68.8573 57.4397 69.1831 57.1236 69.65 57.1042ZM70.0049 62.1762C79.152 62.1762 88.2991 62.1762 97.4462 62.1762C98.2194 62.1762 98.6035 62.429 98.6084 62.9299C98.6133 63.4308 98.2194 63.6983 97.4656 63.7031C92.8654 63.7031 88.2651 63.7031 83.6697 63.7031C79.1229 63.7031 74.5712 63.7031 70.0244 63.7031C69.2172 63.7031 68.8427 63.4503 68.8524 62.9251C68.8573 62.4096 69.2074 62.1762 70.0049 62.1762ZM98.6084 77.9319C98.6181 78.4133 98.2388 78.6712 97.5143 78.6712C88.3186 78.6712 79.1229 78.6712 69.9271 78.6712C69.7764 78.6712 69.6208 78.6759 69.4749 78.6516C69.0664 78.5884 68.8476 78.3355 68.8524 77.927C68.8622 77.5186 69.0956 77.2803 69.4992 77.2219C69.6791 77.1976 69.8688 77.2074 70.0536 77.2074C74.6004 77.2074 79.1472 77.2074 83.694 77.2074C88.2894 77.2074 92.8897 77.2074 97.4851 77.2074C98.2291 77.2122 98.5938 77.4554 98.6084 77.9319ZM65.5311 100.924C64.8941 101.327 64.2765 101.78 63.5957 102.086C63.0218 102.344 62.4529 102.601 62.166 102.849C62.2195 103.457 62.2487 103.788 62.2097 104.372C62.2243 107.965 58.7474 110.664 55.2072 110.056C52.3478 109.56 50.106 106.997 50.1547 103.944C50.2082 100.574 53.1745 97.826 56.5396 98.0448C58.7085 98.1858 60.3424 99.2119 61.4657 101.06C61.5338 101.172 61.6165 101.279 61.7429 101.468C62.6668 100.914 63.5568 100.384 64.4418 99.8538C64.5585 99.7857 64.6704 99.7128 64.7871 99.6496C65.2199 99.421 65.6332 99.5085 65.8326 99.8781C66.0368 100.238 65.9201 100.676 65.5311 100.924ZM65.5311 85.2505C64.8941 85.6542 64.2765 86.1064 63.5957 86.4128C63.0218 86.6705 62.4529 86.9283 62.166 87.1763C62.2195 87.7841 62.2487 88.1148 62.2097 88.6983C62.2243 92.292 58.7474 94.9909 55.2072 94.3831C52.3478 93.887 50.106 91.3243 50.1547 88.2704C50.2082 84.9004 53.1745 82.1529 56.5396 82.3717C58.7085 82.5128 60.3424 83.5388 61.4657 85.3867C61.5338 85.4986 61.6165 85.6056 61.7429 85.7952C62.6668 85.2408 63.5568 84.7108 64.4418 84.1807C64.5585 84.1126 64.6704 84.0397 64.7871 83.9765C65.2199 83.7479 65.6332 83.8355 65.8326 84.205C66.0368 84.5649 65.9201 85.0025 65.5311 85.2505ZM65.5311 69.5726C64.8941 69.9762 64.2765 70.4285 63.5957 70.7349C63.0218 70.9926 62.4529 71.2503 62.166 71.4983C62.2195 72.1062 62.2487 72.4369 62.2097 73.0204C62.2243 76.6141 58.7474 79.313 55.2072 78.7051C52.3478 78.2091 50.106 75.6464 50.1547 72.5925C50.2082 69.2225 53.1745 66.475 56.5396 66.6938C58.7085 66.8348 60.3424 67.8609 61.4657 69.7088C61.5338 69.8206 61.6165 69.9276 61.7429 70.1173C62.6668 69.5629 63.5568 69.0328 64.4418 68.5028C64.5585 68.4347 64.6704 68.3618 64.7871 68.2985C65.2199 68.07 65.6332 68.1575 65.8326 68.5271C66.0368 68.8918 65.9201 69.3246 65.5311 69.5726ZM65.5311 53.8996C64.8941 54.3032 64.2765 54.7554 63.5957 55.0618C63.0218 55.3195 62.4529 55.5772 62.166 55.8253C62.2195 56.4331 62.2487 56.7638 62.2097 57.3473C62.2243 60.941 58.7474 63.6399 55.2072 63.0321C52.3478 62.536 50.106 59.9733 50.1547 56.9194C50.2082 53.5494 53.1745 50.8019 56.5396 51.0207C58.7085 51.1618 60.3424 52.1878 61.4657 54.0357C61.5338 54.1476 61.6165 54.2545 61.7429 54.4442C62.6668 53.8898 63.5568 53.3598 64.4418 52.8297C64.5585 52.7616 64.6704 52.6887 64.7871 52.6255C65.2199 52.3969 65.6332 52.4844 65.8326 52.854C66.0368 53.2139 65.9201 53.6516 65.5311 53.8996ZM69.4019 72.1791C69.5819 72.1402 69.7667 72.1402 69.9514 72.1402C74.3135 72.1402 78.6754 72.1402 83.0375 72.1402C83.1396 72.1402 83.2369 72.1402 83.339 72.1451C83.8496 72.184 84.1365 72.4417 84.1413 72.8648C84.1462 73.2976 83.8155 73.604 83.3098 73.6088C82.2546 73.6185 81.1944 73.6137 80.1392 73.6137C78.9332 73.6137 77.7223 73.6137 76.5163 73.6137C74.2697 73.6137 72.0182 73.6088 69.7715 73.6185C69.3144 73.6185 68.974 73.4775 68.8622 73.0107C68.7649 72.6265 69.0178 72.2569 69.4019 72.1791ZM69.7472 87.1228C71.9987 87.1179 74.2454 87.1228 76.4969 87.1228C78.6803 87.1228 80.8589 87.1228 83.0423 87.1228C83.2271 87.1228 83.4216 87.1082 83.5918 87.1665C83.9274 87.2881 84.1705 87.5167 84.1462 87.9154C84.1219 88.3044 83.8885 88.5233 83.5237 88.5962C83.3633 88.6303 83.1882 88.6303 83.0229 88.6303C78.6755 88.6303 74.328 88.6303 69.9806 88.6303C69.898 88.6303 69.8104 88.6304 69.7278 88.6255C69.1491 88.5915 68.8427 88.3288 68.8524 87.8619C68.8573 87.4243 69.2026 87.1228 69.7472 87.1228ZM69.6159 92.2045C69.7472 92.1899 69.8834 92.1948 70.0195 92.1948C79.152 92.1948 88.2797 92.1948 97.4122 92.1948C97.6115 92.1948 97.8158 92.1996 98.0103 92.2434C98.3847 92.326 98.6473 92.6081 98.5792 92.9582C98.5306 93.2208 98.268 93.4786 98.0297 93.6488C97.879 93.7557 97.6115 93.7169 97.3927 93.7169C92.8264 93.7218 88.2602 93.7169 83.694 93.7169C79.1763 93.7169 74.6636 93.7169 70.146 93.7169C69.9758 93.7169 69.8104 93.7266 69.6402 93.712C69.1637 93.6731 68.8476 93.3764 68.8378 92.9728C68.8378 92.5546 69.1296 92.2628 69.6159 92.2045ZM69.4603 102.183C69.6402 102.154 69.8299 102.154 70.0098 102.154C74.3232 102.154 78.6366 102.154 82.9451 102.154C83.1445 102.154 83.3487 102.154 83.5481 102.188C83.9322 102.251 84.1413 102.504 84.1365 102.888C84.1365 103.292 83.8982 103.54 83.5043 103.613C83.3438 103.642 83.1688 103.627 83.0034 103.627C80.8395 103.627 78.6755 103.627 76.5115 103.627C74.328 103.627 72.1495 103.627 69.966 103.627C69.8153 103.627 69.6597 103.637 69.5138 103.618C69.115 103.559 68.8719 103.326 68.8524 102.918C68.8378 102.514 69.0518 102.251 69.4603 102.183ZM97.7866 108.69C97.6358 108.695 97.4851 108.695 97.3343 108.695C88.2553 108.695 79.1812 108.695 70.1022 108.695C69.9028 108.695 69.6986 108.704 69.4992 108.68C69.0907 108.631 68.8573 108.383 68.8524 107.98C68.8524 107.552 69.0956 107.299 69.5235 107.25C69.7083 107.231 69.8931 107.241 70.0779 107.241C74.6247 107.241 79.1715 107.241 83.7183 107.241C88.2505 107.241 92.7778 107.241 97.31 107.241C97.4608 107.241 97.6115 107.236 97.7623 107.241C98.2632 107.26 98.6133 107.566 98.6035 107.98C98.5987 108.379 98.268 108.665 97.7866 108.69Z" fill="white"/>
<path d="M60.041 103.992C59.0052 104.61 57.9792 105.242 56.9434 105.86C56.4668 106.146 56.0826 106.108 55.786 105.714C55.149 104.872 54.5265 104.021 53.9138 103.161C53.6171 102.742 53.6901 102.305 54.0499 102.052C54.3709 101.828 54.8037 101.916 55.1052 102.295C55.4067 102.674 55.6887 103.073 55.9756 103.467C56.7002 104.449 56.4814 104.406 57.5075 103.788C58.4217 103.238 59.3359 102.684 60.2647 102.12C59.3359 99.8782 56.7051 98.7646 54.5265 99.6205C52.0853 100.574 50.9474 103.117 51.8519 105.597C52.6786 107.858 55.3094 109.035 57.702 108.194C59.6471 107.508 60.8872 105.32 60.5759 103.744C60.3814 103.822 60.2063 103.895 60.041 103.992Z" fill="white"/>
<path d="M60.041 56.9682C59.0052 57.5857 57.9792 58.2179 56.9434 58.8355C56.4668 59.1224 56.0826 59.0835 55.786 58.6896C55.149 57.8483 54.5265 56.9973 53.9138 56.1366C53.6171 55.7184 53.6901 55.2807 54.0499 55.0278C54.3709 54.8042 54.8037 54.8917 55.1052 55.271C55.4067 55.6503 55.6887 56.0491 55.9756 56.443C56.7002 57.4253 56.4814 57.3815 57.5075 56.7639C58.4217 56.2144 59.3359 55.66 60.2647 55.0959C59.3359 52.8541 56.7051 51.7405 54.5265 52.5964C52.0853 53.5495 50.9474 56.0928 51.8519 58.5729C52.6786 60.8341 55.3094 62.011 57.702 61.1697C59.6471 60.484 60.8872 58.2957 60.5759 56.7201C60.3814 56.7979 60.2063 56.8709 60.041 56.9682Z" fill="white"/>
<path d="M60.041 72.6412C59.0052 73.2588 57.9792 73.891 56.9434 74.5086C56.4668 74.7955 56.0826 74.7566 55.786 74.3627C55.149 73.5214 54.5265 72.6704 53.9138 71.8097C53.6171 71.3915 53.6901 70.9538 54.0499 70.7009C54.3709 70.4773 54.8037 70.5648 55.1052 70.9441C55.4067 71.3234 55.6887 71.7222 55.9756 72.116C56.7002 73.0984 56.4814 73.0546 57.5075 72.437C58.4217 71.8875 59.3359 71.3331 60.2647 70.769C59.3359 68.5272 56.7051 67.4136 54.5265 68.2695C52.0853 69.2226 50.9474 71.7659 51.8519 74.246C52.6786 76.5072 55.3094 77.684 57.702 76.8428C59.6471 76.1571 60.8872 73.9688 60.5759 72.3932C60.3814 72.471 60.2063 72.544 60.041 72.6412Z" fill="white"/>
<path d="M75.466 44.1641C70.4475 44.1641 65.429 44.1593 60.4154 44.1739C59.9145 44.1739 59.754 44.0474 59.7589 43.532C59.7832 40.3273 59.7832 37.1178 59.7589 33.9132C59.754 33.3783 59.9291 33.281 60.4202 33.2859C62.9052 33.3102 65.3852 33.2956 67.8702 33.2956C68.7163 33.2956 68.94 33.0865 69.0032 32.2452C69.2123 29.3567 70.6955 27.4066 73.3798 26.3806C76.5067 25.1794 80.3629 26.9301 81.53 30.1055C81.7829 30.8009 81.885 31.5644 81.9871 32.3036C82.0941 33.0719 82.2935 33.2956 83.0764 33.2956C85.61 33.2956 88.1435 33.3053 90.6771 33.2907C91.0807 33.2907 91.2315 33.388 91.2266 33.8208C91.212 37.0789 91.212 40.3322 91.2266 43.5903C91.2315 44.062 91.071 44.1787 90.6187 44.1787C85.5662 44.1593 80.5137 44.1641 75.466 44.1641Z" fill="white"/>
</g>
<defs>
<clipPath id="clip0_1171_1034">
<rect width="151" height="150" fill="white"/>
</clipPath>
</defs>
</svg>
