<?xml version="1.0" encoding="utf-8"?>
<!-- Generator: Adobe Illustrator 26.0.2, SVG Export Plug-In . SVG Version: 6.00 Build 0)  -->
<svg version="1.1" id="Layer_1" xmlns="http://www.w3.org/2000/svg" xmlns:xlink="http://www.w3.org/1999/xlink" x="0px" y="0px"
	 viewBox="0 0 151 150" style="enable-background:new 0 0 151 150;" xml:space="preserve">
<style type="text/css">
	.st0{fill:#ED6A6A;}
	.st1{fill:#FFFFFF;}
</style>
<circle class="st0" cx="75.5" cy="75" r="75"/>
<path class="st1" d="M106,76.6c0-8.5,0-23.4,0-31.6c0-3.2-2.6-5.8-5.8-5.9c-2.4,0-5.1,0-6.8,0c-0.5,0-0.6,0.2-0.6,0.6
	c0,1.6,0,3.2,0,4.8c0,0.6-0.5,1.1-1.1,1.1c-10.8,0-21.6,0-32.3,0c-0.8,0-1.1-0.2-1.1-1.1c0-1.5,0-3.1,0-4.6c0-0.8,0-0.8-0.8-0.8
	c-1.5,0-3,0-4.5,0c-0.6,0-1.3,0-2.1,0c-3.2,0-5.9,2.6-5.9,5.9l0,67.9c0,3.2,2.6,5.8,5.9,5.9l49.3,0c3.2,0,5.8-2.6,5.8-5.8
	C106,103.6,106,85.4,106,76.6z M69.7,57.1c0.4,0,0.8,0,1.2,0c1.9,0,3.8,0,5.6,0c2.2,0,4.4,0,6.6,0c0.2,0,0.5,0,0.7,0.1
	c0.2,0.2,0.4,0.5,0.4,0.7c0,0.2-0.3,0.4-0.5,0.6c-0.1,0.1-0.4,0.1-0.5,0.1c-4.4,0-8.8,0-13.1,0c-0.1,0-0.2,0-0.3,0
	c-0.5-0.1-0.8-0.3-0.8-0.8C68.9,57.4,69.2,57.1,69.7,57.1z M70,62.2c9.1,0,18.3,0,27.4,0c0.8,0,1.2,0.3,1.2,0.8s-0.4,0.8-1.1,0.8
	c-4.6,0-9.2,0-13.8,0c-4.5,0-9.1,0-13.6,0c-0.8,0-1.2-0.3-1.2-0.8C68.9,62.4,69.2,62.2,70,62.2z M98.6,77.9c0,0.5-0.4,0.7-1.1,0.7
	c-9.2,0-18.4,0-27.6,0c-0.2,0-0.3,0-0.5,0c-0.4-0.1-0.6-0.3-0.6-0.7c0-0.4,0.2-0.6,0.6-0.7c0.2,0,0.4,0,0.6,0c4.5,0,9.1,0,13.6,0
	c4.6,0,9.2,0,13.8,0C98.2,77.2,98.6,77.5,98.6,77.9z M65.5,69.6c-0.6,0.4-1.3,0.9-1.9,1.2c-0.6,0.3-1.1,0.5-1.4,0.8
	c0.1,0.6,0.1,0.9,0,1.5c0,3.6-3.5,6.3-7,5.7c-2.9-0.5-5.1-3.1-5.1-6.1c0.1-3.4,3-6.1,6.4-5.9c2.2,0.1,3.8,1.2,4.9,3
	c0.1,0.1,0.2,0.2,0.3,0.4c0.9-0.6,1.8-1.1,2.7-1.6c0.1-0.1,0.2-0.1,0.3-0.2c0.4-0.2,0.8-0.1,1,0.2C66,68.9,65.9,69.3,65.5,69.6z
	 M65.5,53.9c-0.6,0.4-1.3,0.9-1.9,1.2c-0.6,0.3-1.1,0.5-1.4,0.8c0.1,0.6,0.1,0.9,0,1.5c0,3.6-3.5,6.3-7,5.7
	c-2.9-0.5-5.1-3.1-5.1-6.1c0.1-3.4,3-6.1,6.4-5.9c2.2,0.1,3.8,1.2,4.9,3c0.1,0.1,0.2,0.2,0.3,0.4c0.9-0.6,1.8-1.1,2.7-1.6
	c0.1-0.1,0.2-0.1,0.3-0.2c0.4-0.2,0.8-0.1,1,0.2C66,53.2,65.9,53.7,65.5,53.9z M69.4,72.2c0.2,0,0.4,0,0.5,0c4.4,0,8.7,0,13.1,0
	c0.1,0,0.2,0,0.3,0c0.5,0,0.8,0.3,0.8,0.7c0,0.4-0.3,0.7-0.8,0.7c-1.1,0-2.1,0-3.2,0c-1.2,0-2.4,0-3.6,0c-2.2,0-4.5,0-6.7,0
	c-0.5,0-0.8-0.1-0.9-0.6C68.8,72.6,69,72.3,69.4,72.2z"/>
<path class="st1" d="M60,57c-1,0.6-2.1,1.2-3.1,1.9c-0.5,0.3-0.9,0.2-1.2-0.1c-0.6-0.8-1.3-1.7-1.9-2.6c-0.3-0.4-0.2-0.9,0.1-1.1
	c0.3-0.2,0.8-0.1,1.1,0.2c0.3,0.4,0.6,0.8,0.9,1.2c0.7,1,0.5,0.9,1.5,0.3c0.9-0.5,1.8-1.1,2.8-1.7c-0.9-2.2-3.6-3.4-5.7-2.5
	c-2.4,1-3.6,3.5-2.7,6c0.8,2.3,3.5,3.4,5.9,2.6c1.9-0.7,3.2-2.9,2.9-4.4C60.4,56.8,60.2,56.9,60,57z"/>
<path class="st1" d="M60,72.6c-1,0.6-2.1,1.2-3.1,1.9c-0.5,0.3-0.9,0.2-1.2-0.1c-0.6-0.8-1.3-1.7-1.9-2.6c-0.3-0.4-0.2-0.9,0.1-1.1
	c0.3-0.2,0.8-0.1,1.1,0.2c0.3,0.4,0.6,0.8,0.9,1.2c0.7,1,0.5,0.9,1.5,0.3c0.9-0.5,1.8-1.1,2.8-1.7c-0.9-2.2-3.6-3.4-5.7-2.5
	c-2.4,1-3.6,3.5-2.7,6c0.8,2.3,3.5,3.4,5.9,2.6c1.9-0.7,3.2-2.9,2.9-4.4C60.4,72.5,60.2,72.5,60,72.6z"/>
<path class="st1" d="M75.5,44.2c-5,0-10,0-15.1,0c-0.5,0-0.7-0.1-0.7-0.6c0-3.2,0-6.4,0-9.6c0-0.5,0.2-0.6,0.7-0.6c2.5,0,5,0,7.5,0
	c0.8,0,1.1-0.2,1.1-1.1c0.2-2.9,1.7-4.8,4.4-5.9c3.1-1.2,7,0.5,8.2,3.7c0.3,0.7,0.4,1.5,0.5,2.2c0.1,0.8,0.3,1,1.1,1
	c2.5,0,5.1,0,7.6,0c0.4,0,0.6,0.1,0.5,0.5c0,3.3,0,6.5,0,9.8c0,0.5-0.2,0.6-0.6,0.6C85.6,44.2,80.5,44.2,75.5,44.2z"/>
</svg>
