<svg width="151" height="150" viewBox="0 0 151 150" fill="none" xmlns="http://www.w3.org/2000/svg">
<g clip-path="url(#clip0_889_4382)">
<path d="M75.5 150C116.921 150 150.5 116.421 150.5 75C150.5 33.5786 116.921 0 75.5 0C34.0786 0 0.5 33.5786 0.5 75C0.5 116.421 34.0786 150 75.5 150Z" fill="#507DC6"/>
<path d="M98.3694 56.3366C98.1342 56.0701 97.8989 55.837 97.6637 55.5705C97.4621 55.3374 97.294 55.304 96.9916 55.404C95.1769 56.0368 93.3622 56.6696 91.5139 57.3025C91.0434 57.469 91.0098 57.5023 91.2115 57.9686C92.3205 60.7997 93.295 63.6975 93.8999 66.6951C93.9671 67.0948 93.9335 67.4279 93.6647 67.7276C92.8917 68.527 92.1188 69.393 91.3459 70.1924C91.2787 70.259 91.2115 70.2923 91.0771 70.3589C91.0434 70.1257 90.9762 69.9259 90.9762 69.726C90.5394 65.9623 89.6656 62.2985 88.2878 58.7347C88.0862 58.2351 87.9182 58.1018 87.3805 58.2018C83.8855 58.7347 80.3906 59.0678 76.862 59.201C76.2571 59.2343 76.2235 59.2343 76.2235 59.8671C76.2235 63.7641 76.2235 67.661 76.2235 71.5913C76.2235 72.1575 76.2571 72.757 76.3243 73.3232C76.3243 73.5564 76.2907 73.6896 76.0555 73.7895C74.5096 74.5556 72.9638 75.355 71.3844 76.121C70.3762 76.6206 69.2672 76.5873 68.1582 76.5873C65.1674 76.5873 62.1429 76.5873 59.152 76.5873C58.7152 76.5873 58.6816 76.6539 58.7152 77.0869C58.8832 78.5524 59.0512 80.0513 59.2192 81.5168C59.2865 81.9165 59.152 82.1496 58.7824 82.3162C58.0431 82.6492 57.3373 82.9823 56.598 83.3487C56.2284 83.5152 56.1276 83.4819 56.0603 83.0822C55.7915 81.1504 55.5563 79.1853 55.321 77.2535C55.2538 76.6206 55.2538 76.6206 54.6153 76.6206C51.5908 76.6206 48.5664 76.6206 45.5755 76.6206C45.1386 76.6206 45.0714 76.6872 45.0714 77.1535C45.2058 79.6516 45.7435 82.0497 46.5164 84.4145C47.0877 86.1132 47.7598 87.7785 48.6672 89.3107C48.7344 89.4106 48.7008 89.5771 48.7008 89.677C48.5664 89.6437 48.3983 89.677 48.2975 89.6104C45.6427 88.478 43.5592 86.5795 41.5429 84.5477C40.8708 83.8483 40.4675 83.0822 40.2995 82.1496C38.888 74.822 39.5938 67.7276 42.5846 60.8663C44.769 55.8703 48.0623 51.6736 52.2629 48.1763C56.9005 44.3127 62.1765 41.748 68.1246 40.6489C75.1481 39.3499 82.0372 39.9827 88.6575 42.7139C90.0689 43.3135 91.5139 43.8464 92.7237 44.8789C95.2777 47.0439 97.3276 49.5752 98.235 52.8726C98.4702 53.7386 98.5038 54.6712 98.571 55.5705C98.6046 55.837 98.5038 56.1034 98.4702 56.3699C98.4366 56.3033 98.403 56.3366 98.3694 56.3366ZM65.9739 73.5897C68.1919 73.5564 70.3762 73.5564 72.5941 73.5564C73.199 73.5564 73.2326 73.5564 73.199 72.9568C73.199 71.3581 73.199 69.726 73.199 68.1273C73.199 65.3295 73.199 62.5317 73.199 59.7672C73.199 59.2676 73.1654 59.2343 72.6614 59.201C71.6532 59.1011 70.6114 59.0678 69.6033 58.9678C67.1165 58.6681 64.6297 58.335 62.1765 58.0019C61.9077 57.9686 61.7396 58.0019 61.6388 58.3017C61.5044 58.6348 61.37 58.9678 61.2356 59.3009C59.6225 63.7641 58.8832 68.3938 58.6816 73.1234C58.6816 73.5231 58.7488 73.5897 59.2192 73.5897C61.4708 73.5897 63.7223 73.5897 65.9739 73.5897ZM58.7824 57.2692C58.6816 57.2359 58.5807 57.2026 58.4799 57.1692C56.6652 56.6696 54.8842 56.1034 53.1703 55.304C52.8342 55.1375 52.599 55.2041 52.3638 55.4706C51.7589 56.2366 51.1204 56.9694 50.5827 57.7355C48.1631 61.0662 46.5837 64.7633 45.6763 68.7601C45.3403 70.1923 45.105 71.6579 45.0714 73.1567C45.0714 73.4898 45.1722 73.623 45.5083 73.5897C45.8779 73.5897 46.2476 73.5564 46.6173 73.5564C49.3393 73.5564 52.0613 73.5564 54.7497 73.5564C55.1194 73.5564 55.2874 73.4565 55.2874 73.0901C55.321 72.5572 55.3882 72.0242 55.4218 71.4913C55.6907 68.094 56.2284 64.7633 57.3037 61.5325C57.8078 60.1003 58.2783 58.7347 58.7824 57.2692ZM86.5403 55.1042C86.4731 54.9377 86.4395 54.8377 86.3723 54.7378C84.6248 51.8734 82.6085 49.2421 80.1889 46.9106C79.2144 45.978 78.2062 45.2453 76.7948 45.3119C76.2907 45.3452 76.2571 45.3119 76.2571 45.8115C76.2571 49.1422 76.2571 52.4729 76.2571 55.8037C76.2571 56.27 76.2907 56.3033 76.7612 56.27C79.2816 56.0035 81.7684 55.7703 84.2888 55.5039C84.9945 55.3707 85.7338 55.2374 86.5403 55.1042ZM73.2326 50.8076C73.199 50.2747 73.199 49.7417 73.199 49.2421C73.199 48.0431 73.1654 46.8773 73.1654 45.6783C73.1654 45.4784 73.0982 45.3452 72.863 45.3452C71.5524 45.3452 70.3426 45.645 69.4352 46.6442C68.4607 47.6767 67.4861 48.7092 66.5788 49.8084C65.3354 51.3072 64.2936 52.9059 63.3527 54.6379C63.1511 55.0376 63.1847 55.1042 63.6215 55.2041C64.1256 55.304 64.6297 55.404 65.1674 55.4706C67.6542 55.7703 70.141 56.0368 72.6614 56.3366C73.199 56.4032 73.2326 56.3366 73.2326 55.8037C73.2326 54.0717 73.2326 52.4396 73.2326 50.8076ZM84.2552 46.7108C84.2216 46.7441 84.188 46.8107 84.1544 46.844C84.2888 47.0106 84.3896 47.1771 84.524 47.3436C86.2715 49.3754 87.8509 51.5403 89.1616 53.8718C89.5312 54.5713 89.5984 54.6046 90.3377 54.4048C91.7492 54.0384 93.1942 53.6387 94.6056 53.2057C94.74 53.1724 94.9417 53.0392 94.9417 52.9725C94.9081 52.806 94.8072 52.6728 94.6728 52.5396C92.3541 50.6077 89.8001 49.009 87.0444 47.7766C86.1035 47.3769 85.1625 47.0439 84.2552 46.7108ZM64.9993 47.1105C64.9657 47.0772 64.9657 47.0772 64.9321 47.0439C64.7977 47.0772 64.6633 47.1105 64.5289 47.1438C61.202 48.3762 58.1775 50.2081 55.4554 52.4729C55.321 52.6062 55.2202 52.7727 55.1194 52.9392C55.2874 53.0392 55.4218 53.2057 55.5899 53.2723C56.9341 53.6387 58.3119 54.0051 59.6897 54.3714C60.093 54.4714 60.3282 54.3381 60.4962 54.0051C61.706 51.7069 63.1511 49.5752 64.7305 47.5435C64.8313 47.4102 64.8985 47.2437 64.9993 47.1105Z" fill="white"/>
<path d="M51.4229 101.035C51.6245 101.068 51.7925 101.101 51.9605 101.135C54.4473 101.801 56.9677 101.801 59.4881 101.368C60.3619 101.235 61.1012 101.235 61.9077 101.701C62.7142 102.167 63.6216 102.467 64.4953 102.833C64.6297 102.9 64.7641 102.933 64.9658 102.9C64.8986 102.767 64.8314 102.6 64.7305 102.467C64.3609 101.934 64.0248 101.434 63.6552 100.935C63.4535 100.668 63.4871 100.535 63.8232 100.402C64.5289 100.135 65.2346 99.8689 65.9403 99.5692C66.2428 99.4359 66.478 99.4692 66.6797 99.769C67.6878 101.035 68.696 102.267 69.7377 103.499C70.309 104.199 71.0483 104.599 71.9893 104.599C72.2581 104.599 72.527 104.632 72.8294 104.698C73.1319 104.765 73.2327 104.632 73.2327 104.332C73.2327 103.899 73.2327 103.466 73.2327 103.033C73.2327 102.9 73.2663 102.767 73.2663 102.6C73.4343 102.633 73.5351 102.667 73.7032 102.7C73.7368 102.567 73.804 102.4 73.8376 102.267C74.7113 98.903 75.5851 95.5057 76.4588 92.1417C76.5932 91.6088 76.6604 91.5421 77.1981 91.5755C79.4497 91.7753 81.7012 91.9751 83.9528 92.175C84.8601 92.2749 85.7338 92.4414 86.6412 92.608C87.1789 92.6746 87.3469 92.6413 87.5485 92.1417C88.1198 90.7761 88.6911 89.4105 89.1616 88.0116C90.3378 84.5143 91.0099 80.9505 91.1779 77.2534C91.2115 76.6205 91.1779 76.5872 90.5058 76.5872C87.4477 76.5872 84.3896 76.5539 81.3316 76.5539C81.2307 76.5539 81.1299 76.5539 81.0291 76.5539C80.6258 76.5206 80.525 76.4207 80.6258 76.021C80.7603 75.3549 80.9619 74.6887 81.0963 74.0226C81.1635 73.7894 81.3316 73.7228 81.5332 73.7228C82.5077 73.7228 83.4487 73.7228 84.4232 73.6895C86.5068 73.6895 88.5903 73.6562 90.6738 73.6562C91.1779 73.6562 91.2115 73.6229 91.1779 73.1233C91.1107 72.5571 91.2115 72.4571 91.7828 72.4238C92.5893 72.3572 93.3958 72.3239 94.2024 72.224C94.4712 72.1907 94.6056 72.3239 94.6056 72.5571C94.6056 72.6903 94.6393 72.8235 94.6729 72.9567C94.7737 73.6229 94.7737 73.6229 95.4794 73.6229C98.4366 73.6229 101.428 73.6229 104.385 73.6229C104.922 73.6229 104.99 73.5563 104.956 73.0567C104.788 71.6911 104.654 70.3588 104.418 68.9932C104.351 68.4936 104.15 67.994 104.519 67.5277C104.553 67.4611 104.62 67.3945 104.654 67.3611C105.796 66.262 106.939 65.1629 108.081 64.0637C108.518 63.664 108.585 63.6974 108.753 64.2636C109.493 66.7283 110.131 69.2263 110.266 71.8243C110.367 73.7228 110.467 75.6213 110.367 77.4865C110.198 80.2843 109.694 83.0821 108.787 85.7467C107.04 90.876 104.351 95.4391 100.554 99.336C97.5293 102.467 93.9671 104.898 90.0017 106.764C86.4396 108.429 82.7094 109.461 78.8112 109.861C77.6686 109.994 76.4924 110.028 75.3498 110.028C70.9811 110.094 66.7469 109.328 62.647 107.796C58.8496 106.397 55.4219 104.332 52.263 101.801C52.0277 101.601 51.7925 101.401 51.5573 101.201C51.4565 101.201 51.4565 101.135 51.4229 101.035ZM104.922 77.3866C104.922 77.3533 104.922 77.2867 104.922 77.2534C104.956 76.5872 104.956 76.5539 104.25 76.5539C102.503 76.5539 100.755 76.5872 99.0415 76.5872C97.7645 76.5872 96.4875 76.5872 95.2105 76.5872C94.8745 76.5872 94.7065 76.6871 94.7065 77.0535C94.7065 77.3533 94.6729 77.6531 94.6392 77.9528C94.404 81.2502 93.8663 84.5143 92.8246 87.6785C92.2533 89.4771 91.5476 91.2424 90.9091 93.0077C90.741 93.5073 90.741 93.5406 91.2787 93.7404C92.8582 94.3066 94.4376 94.8396 96.0171 95.4058C96.622 95.6056 96.622 95.6389 97.0588 95.1393C98.7727 93.2408 100.251 91.1758 101.495 88.9442C103.444 85.347 104.519 81.4501 104.922 77.3866ZM76.2235 99.5359C76.2235 101.101 76.2235 102.7 76.2235 104.265C76.2235 104.565 76.2908 104.765 76.6604 104.698C76.9965 104.632 77.3325 104.599 77.6686 104.599C78.8784 104.599 79.8529 104.132 80.5922 103.2C82.4405 100.968 84.1544 98.6366 85.5658 96.1385C85.8347 95.6722 85.8011 95.6389 85.297 95.539C82.4405 95.0061 79.5505 94.673 76.6604 94.4399C76.3244 94.4066 76.2235 94.5398 76.2235 94.8729C76.2235 96.405 76.2235 97.9704 76.2235 99.5359ZM85.1626 102.733C85.1962 102.767 85.2298 102.8 85.2634 102.833C88.5231 101.701 91.4803 100.035 94.2024 97.8372C94.0007 97.7373 93.8663 97.6707 93.7655 97.6374C92.4549 97.2377 91.1443 96.838 89.8337 96.405C89.4304 96.2718 89.1952 96.4383 88.9936 96.7714C87.851 98.6033 86.6748 100.435 85.4986 102.267C85.3642 102.4 85.2634 102.567 85.1626 102.733Z" fill="white"/>
<path d="M42.2151 88.2116C42.3495 88.3115 42.4167 88.3448 42.4839 88.3781C45.0715 90.6763 48.0288 92.1418 51.4901 92.5082C53.1368 92.6747 54.7499 92.4416 56.2285 91.7088C57.035 91.3091 57.6735 90.7429 58.1776 90.0435C58.4128 89.7104 58.4128 89.5772 58.0432 89.344C56.867 88.6446 55.6908 87.9451 54.5146 87.2124C54.4138 87.1457 54.2794 87.0791 54.1114 86.9459C54.2794 86.846 54.3802 86.7794 54.5146 86.7128C60.2947 83.915 66.0412 81.0838 71.8213 78.286C73.8713 77.2868 75.9548 76.2876 78.0047 75.2884C78.1391 75.2218 78.2736 75.2218 78.408 75.1885C78.408 75.3217 78.408 75.4549 78.3744 75.5882C76.6605 82.3162 74.9466 89.0109 73.1992 95.739C72.9639 96.7049 72.6951 97.6375 72.4598 98.6034C72.3254 99.103 72.2246 99.1363 71.7877 98.8699C70.5779 98.1038 69.3682 97.3377 68.192 96.5717C67.8559 96.3385 67.5871 96.3385 67.2174 96.5051C64.4282 97.904 61.5045 98.9032 58.3792 99.3029C53.6409 99.9024 49.5074 98.6367 46.1133 95.2394C44.265 93.4075 42.988 91.2758 42.3159 88.7778C42.3159 88.6446 42.2823 88.478 42.2151 88.2116Z" fill="white"/>
<path d="M97.496 46.9441C97.8656 47.1106 98.2017 47.2772 98.5714 47.4437C100.957 48.6428 103.074 50.1416 104.654 52.3399C106.401 54.8046 107.309 57.5691 107.51 60.5667C107.544 61.0996 107.376 61.5992 107.006 61.9989C104.385 64.7967 101.495 67.2615 97.9329 68.7936C97.0927 69.16 96.1854 69.4597 95.3116 69.7595C95.2108 69.7928 95.11 69.7928 94.9756 69.7262C95.0764 69.593 95.1436 69.4264 95.278 69.2932C98.773 65.2963 100.453 60.6333 100.756 55.4041C100.89 53.1392 100.453 50.9743 99.2099 49.0424C98.8402 48.4429 98.3361 47.9433 97.8656 47.4104C97.7312 47.2772 97.5968 47.1106 97.4624 46.9774C97.4288 47.0107 97.4624 46.9774 97.496 46.9441Z" fill="white"/>
</g>
<defs>
<clipPath id="clip0_889_4382">
<rect width="151" height="150" fill="white"/>
</clipPath>
</defs>
</svg>
