<svg width="151" height="150" viewBox="0 0 151 150" fill="none" xmlns="http://www.w3.org/2000/svg">
<g clip-path="url(#clip0_1188_595)">
<path d="M75.5 150C116.921 150 150.5 116.421 150.5 75C150.5 33.5786 116.921 0 75.5 0C34.0786 0 0.5 33.5786 0.5 75C0.5 116.421 34.0786 150 75.5 150Z" fill="#507DC6"/>
<path d="M103.05 52.5949C102.767 52.2751 102.485 51.9952 102.202 51.6754C101.96 51.3955 101.759 51.3556 101.396 51.4755C99.2175 52.2351 97.0393 52.9947 94.8208 53.7543C94.2561 53.9542 94.2158 53.9942 94.4578 54.5539C95.7889 57.9521 96.9587 61.4303 97.6847 65.0284C97.7654 65.5081 97.7251 65.9079 97.4024 66.2677C96.4746 67.2272 95.5469 68.2667 94.6191 69.2262C94.5384 69.3061 94.4578 69.3461 94.2964 69.426C94.2561 69.1462 94.1754 68.9063 94.1754 68.6664C93.651 64.1488 92.6023 59.7511 90.9485 55.4734C90.7065 54.8737 90.5048 54.7138 89.8594 54.8337C85.6644 55.4734 81.4693 55.8732 77.234 56.0331C76.5079 56.0731 76.4676 56.0731 76.4676 56.8327C76.4676 61.5102 76.4676 66.1878 76.4676 70.9053C76.4676 71.5849 76.5079 72.3045 76.5886 72.9842C76.5886 73.264 76.5482 73.4239 76.2659 73.5439C74.4104 74.4634 72.5549 75.4229 70.6591 76.3424C69.449 76.9421 68.1179 76.9021 66.7867 76.9021C63.1968 76.9021 59.5665 76.9021 55.9765 76.9021C55.4521 76.9021 55.4118 76.9821 55.4521 77.5018C55.6538 79.2609 55.8555 81.0599 56.0572 82.819C56.1378 83.2987 55.9765 83.5786 55.5328 83.7785C54.6454 84.1783 53.7983 84.5781 52.9109 85.0178C52.4672 85.2177 52.3462 85.1777 52.2655 84.698C51.9428 82.3792 51.6605 80.0205 51.3781 77.7017C51.2974 76.9421 51.2974 76.9421 50.531 76.9421C46.9007 76.9421 43.2704 76.9421 39.6804 76.9421C39.1561 76.9421 39.0754 77.022 39.0754 77.5817C39.2367 80.5802 39.8821 83.4586 40.8099 86.2972C41.4956 88.3361 42.3023 90.335 43.3914 92.1741C43.4721 92.294 43.4318 92.4939 43.4318 92.6138C43.2704 92.5738 43.0687 92.6138 42.9477 92.5339C39.7611 91.1746 37.2602 88.8958 34.84 86.4571C34.0333 85.6175 33.5492 84.698 33.3476 83.5786C31.6534 74.7832 32.5005 66.2677 36.0905 58.032C38.7124 52.0352 42.6654 46.9979 47.7075 42.8001C53.2739 38.1625 59.6068 35.0841 66.7464 33.7648C75.1768 32.2057 83.4458 32.9653 91.3922 36.2435C93.0863 36.9631 94.8208 37.6028 96.2729 38.8422C99.3385 41.4408 101.799 44.4792 102.888 48.4371C103.171 49.4766 103.211 50.596 103.292 51.6754C103.332 51.9952 103.211 52.3151 103.171 52.6349C103.13 52.5549 103.09 52.5949 103.05 52.5949ZM64.1649 73.304C66.8271 73.264 69.449 73.264 72.1112 73.264C72.8373 73.264 72.8776 73.264 72.8373 72.5444C72.8373 70.6254 72.8373 68.6664 72.8373 66.7475C72.8373 63.3892 72.8373 60.031 72.8373 56.7127C72.8373 56.1131 72.7969 56.0731 72.1919 56.0331C70.9818 55.9132 69.7313 55.8732 68.5212 55.7532C65.5363 55.3934 62.5514 54.9936 59.6068 54.5939C59.2841 54.5539 59.0824 54.5939 58.9614 54.9537C58.8001 55.3535 58.6387 55.7532 58.4774 56.153C56.5412 61.5102 55.6538 67.0673 55.4118 72.7443C55.4118 73.224 55.4924 73.304 56.0572 73.304C58.7597 73.304 61.4623 73.304 64.1649 73.304ZM55.5328 53.7143C55.4118 53.6743 55.2908 53.6344 55.1698 53.5944C52.9916 52.9947 50.8537 52.3151 48.7965 51.3556C48.3932 51.1557 48.1108 51.2356 47.8285 51.5555C47.1024 52.475 46.336 53.3545 45.6906 54.274C42.7864 58.2719 40.8905 62.7096 39.8014 67.5071C39.3981 69.2262 39.1157 70.9852 39.0754 72.7843C39.0754 73.1841 39.1964 73.344 39.5998 73.304C40.0435 73.304 40.4872 73.264 40.9309 73.264C44.1982 73.264 47.4654 73.264 50.6924 73.264C51.1361 73.264 51.3378 73.1441 51.3378 72.7043C51.3781 72.0647 51.4588 71.425 51.4991 70.7853C51.8218 66.7075 52.4672 62.7096 53.758 58.8316C54.363 57.1125 54.9277 55.4734 55.5328 53.7143ZM88.851 51.1157C88.7703 50.9158 88.7299 50.7959 88.6493 50.6759C86.5518 47.2377 84.1316 44.0794 81.2273 41.2809C80.0575 40.1615 78.8474 39.2819 77.1533 39.3619C76.5482 39.4019 76.5079 39.3619 76.5079 39.9616C76.5079 43.9595 76.5079 47.9574 76.5079 51.9553C76.5079 52.515 76.5482 52.5549 77.113 52.515C80.1382 52.1951 83.1231 51.9153 86.1484 51.5954C86.9955 51.4355 87.8829 51.2756 88.851 51.1157ZM72.8776 45.9584C72.8373 45.3187 72.8373 44.6791 72.8373 44.0794C72.8373 42.6402 72.7969 41.2409 72.7969 39.8017C72.7969 39.5618 72.7162 39.4019 72.4339 39.4019C70.8608 39.4019 69.4086 39.7617 68.3195 40.961C67.1498 42.2004 65.98 43.4397 64.8909 44.759C63.3985 46.5581 62.148 48.4771 61.0186 50.556C60.7766 51.0357 60.8169 51.1157 61.3413 51.2356C61.9463 51.3556 62.5514 51.4755 63.1968 51.5555C66.1817 51.9153 69.1666 52.2351 72.1919 52.5949C72.8373 52.6749 72.8776 52.5949 72.8776 51.9553C72.8776 49.8763 72.8776 47.9174 72.8776 45.9584ZM86.1081 41.041C86.0677 41.081 86.0274 41.1609 85.9871 41.2009C86.1484 41.4008 86.2694 41.6007 86.4308 41.8006C88.5283 44.2393 90.4241 46.8379 91.9972 49.6365C92.4409 50.476 92.5216 50.516 93.409 50.2761C95.1032 49.8364 96.8376 49.3566 98.5318 48.8369C98.6931 48.7969 98.9352 48.637 98.9352 48.557C98.8948 48.3571 98.7738 48.1972 98.6125 48.0373C95.8292 45.7185 92.7636 43.7995 89.456 42.3203C88.3266 41.8406 87.1972 41.4408 86.1081 41.041ZM62.9951 41.5207C62.9548 41.4808 62.9547 41.4808 62.9144 41.4408C62.7531 41.4808 62.5917 41.5207 62.4304 41.5607C58.437 43.0399 54.8067 45.2388 51.5394 47.9574C51.3781 48.1173 51.2571 48.3172 51.1361 48.5171C51.3378 48.637 51.4991 48.8369 51.7008 48.9169C53.3143 49.3566 54.9681 49.7964 56.6219 50.2362C57.1059 50.3561 57.3883 50.1962 57.59 49.7964C59.0421 47.0378 60.7766 44.4792 62.6724 42.0405C62.7934 41.8806 62.8741 41.6807 62.9951 41.5207Z" fill="white"/>
<path d="M46.6992 106.247C46.9412 106.287 47.1429 106.327 47.3446 106.367C50.3295 107.166 53.3548 107.166 56.38 106.646C57.4288 106.487 58.3162 106.487 59.2843 107.046C60.2524 107.606 61.3415 107.966 62.3902 108.405C62.5516 108.485 62.7129 108.525 62.9549 108.485C62.8743 108.326 62.7936 108.126 62.6726 107.966C62.2289 107.326 61.8255 106.726 61.3818 106.127C61.1398 105.807 61.1801 105.647 61.5835 105.487C62.4306 105.167 63.2776 104.847 64.1247 104.488C64.4877 104.328 64.7701 104.368 65.0121 104.727C66.2222 106.247 67.4323 107.726 68.6828 109.205C69.3685 110.045 70.2559 110.524 71.3853 110.524C71.708 110.524 72.0307 110.564 72.3937 110.644C72.7568 110.724 72.8778 110.564 72.8778 110.205C72.8778 109.685 72.8778 109.165 72.8778 108.645C72.8778 108.485 72.9181 108.326 72.9181 108.126C73.1198 108.166 73.2408 108.206 73.4425 108.246C73.4828 108.086 73.5635 107.886 73.6038 107.726C74.6526 103.688 75.7014 99.6101 76.7501 95.5723C76.9115 94.9326 76.9921 94.8526 77.6375 94.8926C80.3401 95.1325 83.0426 95.3724 85.7452 95.6122C86.8343 95.7322 87.8831 95.9321 88.9722 96.132C89.6175 96.2119 89.8192 96.1719 90.0612 95.5723C90.747 93.9331 91.4327 92.294 91.9974 90.6149C93.4092 86.4171 94.2159 82.1393 94.4176 77.7017C94.458 76.9421 94.4176 76.9021 93.6109 76.9021C89.9402 76.9021 86.2696 76.8621 82.5989 76.8621C82.4779 76.8621 82.3569 76.8621 82.2359 76.8621C81.7519 76.8221 81.6309 76.7022 81.7519 76.2225C81.9132 75.4229 82.1552 74.6233 82.3166 73.8237C82.3973 73.5439 82.5989 73.4639 82.841 73.4639C84.0107 73.4639 85.1402 73.4639 86.3099 73.4239C88.8108 73.4239 91.3117 73.384 93.8126 73.384C94.4176 73.384 94.458 73.344 94.4176 72.7443C94.3369 72.0646 94.458 71.9447 95.1437 71.9047C96.1118 71.8248 97.0798 71.7848 98.0479 71.6649C98.3706 71.6249 98.532 71.7848 98.532 72.0646C98.532 72.2246 98.5723 72.3845 98.6126 72.5444C98.7337 73.344 98.7337 73.344 99.5807 73.344C103.13 73.344 106.72 73.344 110.27 73.344C110.915 73.344 110.996 73.264 110.956 72.6643C110.754 71.0252 110.593 69.426 110.31 67.7869C110.23 67.1872 109.988 66.5875 110.431 66.0278C110.472 65.9479 110.552 65.8679 110.593 65.8279C111.964 64.5086 113.336 63.1893 114.707 61.87C115.231 61.3903 115.312 61.4303 115.514 62.1099C116.401 65.0683 117.168 68.0668 117.329 71.1851C117.45 73.4639 117.571 75.7427 117.45 77.9815C117.248 81.3398 116.643 84.698 115.554 87.8963C113.457 94.0531 110.23 99.5302 105.672 104.208C102.041 107.966 97.7656 110.884 93.0058 113.123C88.7301 115.122 84.2527 116.361 79.5737 116.841C78.2022 117.001 76.7904 117.041 75.419 117.041C70.1752 117.121 65.0928 116.201 60.1717 114.362C55.6136 112.683 51.4993 110.205 47.7076 107.166C47.4253 106.926 47.1429 106.686 46.8606 106.447C46.7396 106.447 46.7396 106.367 46.6992 106.247ZM110.915 77.8616C110.915 77.8216 110.915 77.7417 110.915 77.7017C110.956 76.9021 110.956 76.8621 110.109 76.8621C108.011 76.8621 105.914 76.9021 103.856 76.9021C102.324 76.9021 100.791 76.9021 99.258 76.9021C98.8547 76.9021 98.653 77.022 98.653 77.4618C98.653 77.8216 98.6126 78.1814 98.5723 78.5412C98.2899 82.4991 97.6446 86.4171 96.3941 90.2151C95.7084 92.3739 94.8613 94.4928 94.0949 96.6117C93.8932 97.2114 93.8932 97.2514 94.5386 97.4913C96.4345 98.1709 98.3303 98.8106 100.226 99.4902C100.952 99.7301 100.952 99.77 101.477 99.1704C103.534 96.8916 105.309 94.4129 106.801 91.7343C109.141 87.4166 110.431 82.739 110.915 77.8616ZM76.4678 104.448C76.4678 106.327 76.4678 108.246 76.4678 110.125C76.4678 110.484 76.5484 110.724 76.9921 110.644C77.3955 110.564 77.7989 110.524 78.2022 110.524C79.6544 110.524 80.8241 109.965 81.7115 108.845C83.9301 106.167 85.9872 103.368 87.6814 100.37C88.0041 99.81 87.9637 99.77 87.3587 99.6501C83.9301 99.0104 80.4611 98.6107 76.9921 98.3308C76.5888 98.2908 76.4678 98.4507 76.4678 98.8505C76.4678 100.69 76.4678 102.569 76.4678 104.448ZM87.1973 108.286C87.2377 108.326 87.278 108.366 87.3183 108.405C91.231 107.046 94.7806 105.047 98.0479 102.409C97.8059 102.289 97.6446 102.209 97.5235 102.169C95.9504 101.689 94.3773 101.209 92.8041 100.69C92.3201 100.53 92.0377 100.73 91.7957 101.129C90.4243 103.328 89.0125 105.527 87.6007 107.726C87.4394 107.886 87.3183 108.086 87.1973 108.286Z" fill="white"/>
<path d="M35.647 90.8548C35.8083 90.9747 35.889 91.0147 35.9697 91.0547C39.0756 93.8132 42.6252 95.5723 46.7799 96.0121C48.7564 96.212 50.6926 95.9321 52.4674 95.0526C53.4355 94.5728 54.2019 93.8932 54.8069 93.0536C55.0893 92.6538 55.0893 92.4939 54.6456 92.2141C53.2338 91.3745 51.822 90.5349 50.4102 89.6554C50.2892 89.5755 50.1279 89.4955 49.9262 89.3356C50.1279 89.2156 50.2489 89.1357 50.4102 89.0557C57.3482 85.6975 64.2457 82.2993 71.1837 78.9411C73.6442 77.7417 76.1451 76.5423 78.6056 75.343C78.767 75.263 78.9283 75.263 79.0897 75.223C79.0897 75.3829 79.0897 75.5429 79.0493 75.7028C76.9922 83.7785 74.935 91.8143 72.8375 99.89C72.5551 101.049 72.2324 102.169 71.9501 103.328C71.7887 103.928 71.6677 103.968 71.1433 103.648C69.6912 102.729 68.2391 101.809 66.8273 100.889C66.4239 100.61 66.1012 100.61 65.6575 100.81C62.3096 102.489 58.8003 103.688 55.049 104.168C49.3615 104.887 44.4001 103.368 40.326 99.2903C38.1075 97.0915 36.5747 94.5328 35.768 91.5344C35.768 91.3745 35.7276 91.1746 35.647 90.8548Z" fill="white"/>
<path d="M102.001 41.3209C102.445 41.5208 102.848 41.7207 103.292 41.9205C106.156 43.3598 108.697 45.1588 110.593 47.7974C112.69 50.7559 113.779 54.0741 114.021 57.6722C114.062 58.3119 113.86 58.9116 113.416 59.3913C110.27 62.7496 106.801 65.708 102.525 67.547C101.517 67.9868 100.428 68.3466 99.379 68.7064C99.2579 68.7464 99.1369 68.7464 98.9756 68.6664C99.0966 68.5065 99.1773 68.3066 99.3386 68.1467C103.534 63.3493 105.55 57.7522 105.914 51.4755C106.075 48.7569 105.55 46.1583 104.058 43.8395C103.614 43.1199 103.009 42.5202 102.445 41.8806C102.283 41.7206 102.122 41.5208 101.961 41.3608C101.92 41.4008 101.961 41.3608 102.001 41.3209Z" fill="white"/>
</g>
<defs>
<clipPath id="clip0_1188_595">
<rect width="151" height="150" fill="white"/>
</clipPath>
</defs>
</svg>
