<svg width="40" height="40" viewBox="0 0 40 40" fill="none" xmlns="http://www.w3.org/2000/svg">
<rect width="40" height="40" rx="8" fill="#E8605A"/>
<path d="M25.4545 19.7702C25.4545 22.4733 24.9472 24.7333 23.9326 26.55C22.9179 28.3557 21.4456 29.7182 19.5156 30.6375C17.5856 31.5458 15.2586 32 12.5345 32H5.81812V8H13.2624C15.7659 8 17.9275 8.4487 19.7472 9.3461C21.5669 10.2326 22.973 11.5513 23.9657 13.3023C24.9582 15.0424 25.4545 17.1984 25.4545 19.7702ZM21.3188 19.8851C21.3188 17.9152 21.0044 16.2955 20.3759 15.026C19.7582 13.7565 18.8429 12.8153 17.6297 12.2025C16.4276 11.5787 14.9443 11.2668 13.1797 11.2668H9.7884V28.7004H12.6007C15.5233 28.7004 17.7069 27.9617 19.1516 26.4843C20.5964 25.0069 21.3188 22.8071 21.3188 19.8851Z" fill="white"/>
<path d="M30.5454 32V8H34.1818V32H30.5454Z" fill="white"/>
</svg>
