<svg width="49" height="41" viewBox="0 0 49 41" fill="none" xmlns="http://www.w3.org/2000/svg">
<path d="M33.3886 20.1074C33.3886 24.7253 32.526 28.586 30.8008 31.6895C29.0756 34.7743 26.5721 37.1019 23.2905 38.6724C20.0088 40.2241 16.052 41 11.4202 41H0V0H12.6579C16.9147 0 20.5901 0.76653 23.6843 2.29959C26.7784 3.81395 29.1693 6.0668 30.8571 9.05814C32.5448 12.0308 33.3886 15.7139 33.3886 20.1074ZM26.3565 20.3037C26.3565 16.9384 25.822 14.1715 24.7532 12.0027C23.703 9.83402 22.1466 8.22617 20.0838 7.17921C18.0398 6.11354 15.5176 5.58071 12.5172 5.58071H6.75086V35.3632H11.5327C16.5021 35.3632 20.2151 34.1012 22.6716 31.5773C25.1282 29.0534 26.3565 25.2955 26.3565 20.3037Z" fill="#404040"/>
<path d="M42.2491 41V0H49V41H42.2491Z" fill="#404040"/>
</svg>
